<?xml version="1.0" encoding="utf-8" standalone="no"?>
<!DOCTYPE svg PUBLIC "-//W3C//DTD SVG 1.1//EN"
  "http://www.w3.org/Graphics/SVG/1.1/DTD/svg11.dtd">
<svg xmlns:xlink="http://www.w3.org/1999/xlink" width="583.178906pt" height="448.628438pt" viewBox="0 0 583.178906 448.628438" xmlns="http://www.w3.org/2000/svg" version="1.1">
 <metadata>
  <rdf:RDF xmlns:dc="http://purl.org/dc/elements/1.1/" xmlns:cc="http://creativecommons.org/ns#" xmlns:rdf="http://www.w3.org/1999/02/22-rdf-syntax-ns#">
   <cc:Work>
    <dc:type rdf:resource="http://purl.org/dc/dcmitype/StillImage"/>
    <dc:date>2022-05-24T05:10:31.793740</dc:date>
    <dc:format>image/svg+xml</dc:format>
    <dc:creator>
     <cc:Agent>
      <dc:title>Matplotlib v3.5.2, https://matplotlib.org/</dc:title>
     </cc:Agent>
    </dc:creator>
   </cc:Work>
  </rdf:RDF>
 </metadata>
 <defs>
  <style type="text/css">*{stroke-linejoin: round; stroke-linecap: butt}</style>
 </defs>
 <g id="figure_1">
  <g id="patch_1">
   <path d="M 0 448.628438 
L 583.178906 448.628438 
L 583.178906 0 
L 0 0 
z
" style="fill: #ffffff"/>
  </g>
  <g id="axes_1">
   <g id="patch_2">
    <path d="M 74.858906 394.538906 
L 575.978906 394.538906 
L 575.978906 44.618906 
L 74.858906 44.618906 
z
" style="fill: #ffffff"/>
   </g>
   <g id="matplotlib.axis_1">
    <g id="xtick_1">
     <g id="text_1">
      <!-- 10 -->
      <g style="fill: #262626" transform="translate(175.558921 416.576328)scale(0.165 -0.165)">
       <defs>
        <path id="DejaVuSans-31" d="M 794 531 
L 1825 531 
L 1825 4091 
L 703 3866 
L 703 4441 
L 1819 4666 
L 2450 4666 
L 2450 531 
L 3481 531 
L 3481 0 
L 794 0 
L 794 531 
z
" transform="scale(0.015625)"/>
        <path id="DejaVuSans-30" d="M 2034 4250 
Q 1547 4250 1301 3770 
Q 1056 3291 1056 2328 
Q 1056 1369 1301 889 
Q 1547 409 2034 409 
Q 2525 409 2770 889 
Q 3016 1369 3016 2328 
Q 3016 3291 2770 3770 
Q 2525 4250 2034 4250 
z
M 2034 4750 
Q 2819 4750 3233 4129 
Q 3647 3509 3647 2328 
Q 3647 1150 3233 529 
Q 2819 -91 2034 -91 
Q 1250 -91 836 529 
Q 422 1150 422 2328 
Q 422 3509 836 4129 
Q 1250 4750 2034 4750 
z
" transform="scale(0.015625)"/>
       </defs>
       <use xlink:href="#DejaVuSans-31"/>
       <use xlink:href="#DejaVuSans-30" x="63.623047"/>
      </g>
     </g>
    </g>
    <g id="xtick_2">
     <g id="text_2">
      <!-- 15 -->
      <g style="fill: #262626" transform="translate(296.95427 416.576328)scale(0.165 -0.165)">
       <defs>
        <path id="DejaVuSans-35" d="M 691 4666 
L 3169 4666 
L 3169 4134 
L 1269 4134 
L 1269 2991 
Q 1406 3038 1543 3061 
Q 1681 3084 1819 3084 
Q 2600 3084 3056 2656 
Q 3513 2228 3513 1497 
Q 3513 744 3044 326 
Q 2575 -91 1722 -91 
Q 1428 -91 1123 -41 
Q 819 9 494 109 
L 494 744 
Q 775 591 1075 516 
Q 1375 441 1709 441 
Q 2250 441 2565 725 
Q 2881 1009 2881 1497 
Q 2881 1984 2565 2268 
Q 2250 2553 1709 2553 
Q 1456 2553 1204 2497 
Q 953 2441 691 2322 
L 691 4666 
z
" transform="scale(0.015625)"/>
       </defs>
       <use xlink:href="#DejaVuSans-31"/>
       <use xlink:href="#DejaVuSans-35" x="63.623047"/>
      </g>
     </g>
    </g>
    <g id="xtick_3">
     <g id="text_3">
      <!-- 20 -->
      <g style="fill: #262626" transform="translate(418.349618 416.576328)scale(0.165 -0.165)">
       <defs>
        <path id="DejaVuSans-32" d="M 1228 531 
L 3431 531 
L 3431 0 
L 469 0 
L 469 531 
Q 828 903 1448 1529 
Q 2069 2156 2228 2338 
Q 2531 2678 2651 2914 
Q 2772 3150 2772 3378 
Q 2772 3750 2511 3984 
Q 2250 4219 1831 4219 
Q 1534 4219 1204 4116 
Q 875 4013 500 3803 
L 500 4441 
Q 881 4594 1212 4672 
Q 1544 4750 1819 4750 
Q 2544 4750 2975 4387 
Q 3406 4025 3406 3419 
Q 3406 3131 3298 2873 
Q 3191 2616 2906 2266 
Q 2828 2175 2409 1742 
Q 1991 1309 1228 531 
z
" transform="scale(0.015625)"/>
       </defs>
       <use xlink:href="#DejaVuSans-32"/>
       <use xlink:href="#DejaVuSans-30" x="63.623047"/>
      </g>
     </g>
    </g>
    <g id="xtick_4">
     <g id="text_4">
      <!-- 25 -->
      <g style="fill: #262626" transform="translate(539.744967 416.576328)scale(0.165 -0.165)">
       <use xlink:href="#DejaVuSans-32"/>
       <use xlink:href="#DejaVuSans-35" x="63.623047"/>
      </g>
     </g>
    </g>
    <g id="text_5">
     <!-- Interest Rate -->
     <g style="fill: #262626" transform="translate(267.249375 437.685)scale(0.18 -0.18)">
      <defs>
       <path id="DejaVuSans-49" d="M 628 4666 
L 1259 4666 
L 1259 0 
L 628 0 
L 628 4666 
z
" transform="scale(0.015625)"/>
       <path id="DejaVuSans-6e" d="M 3513 2113 
L 3513 0 
L 2938 0 
L 2938 2094 
Q 2938 2591 2744 2837 
Q 2550 3084 2163 3084 
Q 1697 3084 1428 2787 
Q 1159 2491 1159 1978 
L 1159 0 
L 581 0 
L 581 3500 
L 1159 3500 
L 1159 2956 
Q 1366 3272 1645 3428 
Q 1925 3584 2291 3584 
Q 2894 3584 3203 3211 
Q 3513 2838 3513 2113 
z
" transform="scale(0.015625)"/>
       <path id="DejaVuSans-74" d="M 1172 4494 
L 1172 3500 
L 2356 3500 
L 2356 3053 
L 1172 3053 
L 1172 1153 
Q 1172 725 1289 603 
Q 1406 481 1766 481 
L 2356 481 
L 2356 0 
L 1766 0 
Q 1100 0 847 248 
Q 594 497 594 1153 
L 594 3053 
L 172 3053 
L 172 3500 
L 594 3500 
L 594 4494 
L 1172 4494 
z
" transform="scale(0.015625)"/>
       <path id="DejaVuSans-65" d="M 3597 1894 
L 3597 1613 
L 953 1613 
Q 991 1019 1311 708 
Q 1631 397 2203 397 
Q 2534 397 2845 478 
Q 3156 559 3463 722 
L 3463 178 
Q 3153 47 2828 -22 
Q 2503 -91 2169 -91 
Q 1331 -91 842 396 
Q 353 884 353 1716 
Q 353 2575 817 3079 
Q 1281 3584 2069 3584 
Q 2775 3584 3186 3129 
Q 3597 2675 3597 1894 
z
M 3022 2063 
Q 3016 2534 2758 2815 
Q 2500 3097 2075 3097 
Q 1594 3097 1305 2825 
Q 1016 2553 972 2059 
L 3022 2063 
z
" transform="scale(0.015625)"/>
       <path id="DejaVuSans-72" d="M 2631 2963 
Q 2534 3019 2420 3045 
Q 2306 3072 2169 3072 
Q 1681 3072 1420 2755 
Q 1159 2438 1159 1844 
L 1159 0 
L 581 0 
L 581 3500 
L 1159 3500 
L 1159 2956 
Q 1341 3275 1631 3429 
Q 1922 3584 2338 3584 
Q 2397 3584 2469 3576 
Q 2541 3569 2628 3553 
L 2631 2963 
z
" transform="scale(0.015625)"/>
       <path id="DejaVuSans-73" d="M 2834 3397 
L 2834 2853 
Q 2591 2978 2328 3040 
Q 2066 3103 1784 3103 
Q 1356 3103 1142 2972 
Q 928 2841 928 2578 
Q 928 2378 1081 2264 
Q 1234 2150 1697 2047 
L 1894 2003 
Q 2506 1872 2764 1633 
Q 3022 1394 3022 966 
Q 3022 478 2636 193 
Q 2250 -91 1575 -91 
Q 1294 -91 989 -36 
Q 684 19 347 128 
L 347 722 
Q 666 556 975 473 
Q 1284 391 1588 391 
Q 1994 391 2212 530 
Q 2431 669 2431 922 
Q 2431 1156 2273 1281 
Q 2116 1406 1581 1522 
L 1381 1569 
Q 847 1681 609 1914 
Q 372 2147 372 2553 
Q 372 3047 722 3315 
Q 1072 3584 1716 3584 
Q 2034 3584 2315 3537 
Q 2597 3491 2834 3397 
z
" transform="scale(0.015625)"/>
       <path id="DejaVuSans-20" transform="scale(0.015625)"/>
       <path id="DejaVuSans-52" d="M 2841 2188 
Q 3044 2119 3236 1894 
Q 3428 1669 3622 1275 
L 4263 0 
L 3584 0 
L 2988 1197 
Q 2756 1666 2539 1819 
Q 2322 1972 1947 1972 
L 1259 1972 
L 1259 0 
L 628 0 
L 628 4666 
L 2053 4666 
Q 2853 4666 3247 4331 
Q 3641 3997 3641 3322 
Q 3641 2881 3436 2590 
Q 3231 2300 2841 2188 
z
M 1259 4147 
L 1259 2491 
L 2053 2491 
Q 2509 2491 2742 2702 
Q 2975 2913 2975 3322 
Q 2975 3731 2742 3939 
Q 2509 4147 2053 4147 
L 1259 4147 
z
" transform="scale(0.015625)"/>
       <path id="DejaVuSans-61" d="M 2194 1759 
Q 1497 1759 1228 1600 
Q 959 1441 959 1056 
Q 959 750 1161 570 
Q 1363 391 1709 391 
Q 2188 391 2477 730 
Q 2766 1069 2766 1631 
L 2766 1759 
L 2194 1759 
z
M 3341 1997 
L 3341 0 
L 2766 0 
L 2766 531 
Q 2569 213 2275 61 
Q 1981 -91 1556 -91 
Q 1019 -91 701 211 
Q 384 513 384 1019 
Q 384 1609 779 1909 
Q 1175 2209 1959 2209 
L 2766 2209 
L 2766 2266 
Q 2766 2663 2505 2880 
Q 2244 3097 1772 3097 
Q 1472 3097 1187 3025 
Q 903 2953 641 2809 
L 641 3341 
Q 956 3463 1253 3523 
Q 1550 3584 1831 3584 
Q 2591 3584 2966 3190 
Q 3341 2797 3341 1997 
z
" transform="scale(0.015625)"/>
      </defs>
      <use xlink:href="#DejaVuSans-49"/>
      <use xlink:href="#DejaVuSans-6e" x="29.492188"/>
      <use xlink:href="#DejaVuSans-74" x="92.871094"/>
      <use xlink:href="#DejaVuSans-65" x="132.080078"/>
      <use xlink:href="#DejaVuSans-72" x="193.603516"/>
      <use xlink:href="#DejaVuSans-65" x="232.466797"/>
      <use xlink:href="#DejaVuSans-73" x="293.990234"/>
      <use xlink:href="#DejaVuSans-74" x="346.089844"/>
      <use xlink:href="#DejaVuSans-20" x="385.298828"/>
      <use xlink:href="#DejaVuSans-52" x="417.085938"/>
      <use xlink:href="#DejaVuSans-61" x="484.318359"/>
      <use xlink:href="#DejaVuSans-74" x="545.597656"/>
      <use xlink:href="#DejaVuSans-65" x="584.806641"/>
     </g>
    </g>
   </g>
   <g id="matplotlib.axis_2">
    <g id="ytick_1">
     <g id="text_6">
      <!-- 0.00 -->
      <g style="fill: #262626" transform="translate(28.620625 400.807617)scale(0.165 -0.165)">
       <defs>
        <path id="DejaVuSans-2e" d="M 684 794 
L 1344 794 
L 1344 0 
L 684 0 
L 684 794 
z
" transform="scale(0.015625)"/>
       </defs>
       <use xlink:href="#DejaVuSans-30"/>
       <use xlink:href="#DejaVuSans-2e" x="63.623047"/>
       <use xlink:href="#DejaVuSans-30" x="95.410156"/>
       <use xlink:href="#DejaVuSans-30" x="159.033203"/>
      </g>
     </g>
    </g>
    <g id="ytick_2">
     <g id="text_7">
      <!-- 0.25 -->
      <g style="fill: #262626" transform="translate(28.620625 313.327617)scale(0.165 -0.165)">
       <use xlink:href="#DejaVuSans-30"/>
       <use xlink:href="#DejaVuSans-2e" x="63.623047"/>
       <use xlink:href="#DejaVuSans-32" x="95.410156"/>
       <use xlink:href="#DejaVuSans-35" x="159.033203"/>
      </g>
     </g>
    </g>
    <g id="ytick_3">
     <g id="text_8">
      <!-- 0.50 -->
      <g style="fill: #262626" transform="translate(28.620625 225.847617)scale(0.165 -0.165)">
       <use xlink:href="#DejaVuSans-30"/>
       <use xlink:href="#DejaVuSans-2e" x="63.623047"/>
       <use xlink:href="#DejaVuSans-35" x="95.410156"/>
       <use xlink:href="#DejaVuSans-30" x="159.033203"/>
      </g>
     </g>
    </g>
    <g id="ytick_4">
     <g id="text_9">
      <!-- 0.75 -->
      <g style="fill: #262626" transform="translate(28.620625 138.367617)scale(0.165 -0.165)">
       <defs>
        <path id="DejaVuSans-37" d="M 525 4666 
L 3525 4666 
L 3525 4397 
L 1831 0 
L 1172 0 
L 2766 4134 
L 525 4134 
L 525 4666 
z
" transform="scale(0.015625)"/>
       </defs>
       <use xlink:href="#DejaVuSans-30"/>
       <use xlink:href="#DejaVuSans-2e" x="63.623047"/>
       <use xlink:href="#DejaVuSans-37" x="95.410156"/>
       <use xlink:href="#DejaVuSans-35" x="159.033203"/>
      </g>
     </g>
    </g>
    <g id="ytick_5">
     <g id="text_10">
      <!-- 1.00 -->
      <g style="fill: #262626" transform="translate(28.620625 50.887617)scale(0.165 -0.165)">
       <use xlink:href="#DejaVuSans-31"/>
       <use xlink:href="#DejaVuSans-2e" x="63.623047"/>
       <use xlink:href="#DejaVuSans-30" x="95.410156"/>
       <use xlink:href="#DejaVuSans-30" x="159.033203"/>
      </g>
     </g>
    </g>
    <g id="text_11">
     <!-- probability -->
     <g style="fill: #262626" transform="translate(20.877188 267.595313)rotate(-90)scale(0.18 -0.18)">
      <defs>
       <path id="DejaVuSans-70" d="M 1159 525 
L 1159 -1331 
L 581 -1331 
L 581 3500 
L 1159 3500 
L 1159 2969 
Q 1341 3281 1617 3432 
Q 1894 3584 2278 3584 
Q 2916 3584 3314 3078 
Q 3713 2572 3713 1747 
Q 3713 922 3314 415 
Q 2916 -91 2278 -91 
Q 1894 -91 1617 61 
Q 1341 213 1159 525 
z
M 3116 1747 
Q 3116 2381 2855 2742 
Q 2594 3103 2138 3103 
Q 1681 3103 1420 2742 
Q 1159 2381 1159 1747 
Q 1159 1113 1420 752 
Q 1681 391 2138 391 
Q 2594 391 2855 752 
Q 3116 1113 3116 1747 
z
" transform="scale(0.015625)"/>
       <path id="DejaVuSans-6f" d="M 1959 3097 
Q 1497 3097 1228 2736 
Q 959 2375 959 1747 
Q 959 1119 1226 758 
Q 1494 397 1959 397 
Q 2419 397 2687 759 
Q 2956 1122 2956 1747 
Q 2956 2369 2687 2733 
Q 2419 3097 1959 3097 
z
M 1959 3584 
Q 2709 3584 3137 3096 
Q 3566 2609 3566 1747 
Q 3566 888 3137 398 
Q 2709 -91 1959 -91 
Q 1206 -91 779 398 
Q 353 888 353 1747 
Q 353 2609 779 3096 
Q 1206 3584 1959 3584 
z
" transform="scale(0.015625)"/>
       <path id="DejaVuSans-62" d="M 3116 1747 
Q 3116 2381 2855 2742 
Q 2594 3103 2138 3103 
Q 1681 3103 1420 2742 
Q 1159 2381 1159 1747 
Q 1159 1113 1420 752 
Q 1681 391 2138 391 
Q 2594 391 2855 752 
Q 3116 1113 3116 1747 
z
M 1159 2969 
Q 1341 3281 1617 3432 
Q 1894 3584 2278 3584 
Q 2916 3584 3314 3078 
Q 3713 2572 3713 1747 
Q 3713 922 3314 415 
Q 2916 -91 2278 -91 
Q 1894 -91 1617 61 
Q 1341 213 1159 525 
L 1159 0 
L 581 0 
L 581 4863 
L 1159 4863 
L 1159 2969 
z
" transform="scale(0.015625)"/>
       <path id="DejaVuSans-69" d="M 603 3500 
L 1178 3500 
L 1178 0 
L 603 0 
L 603 3500 
z
M 603 4863 
L 1178 4863 
L 1178 4134 
L 603 4134 
L 603 4863 
z
" transform="scale(0.015625)"/>
       <path id="DejaVuSans-6c" d="M 603 4863 
L 1178 4863 
L 1178 0 
L 603 0 
L 603 4863 
z
" transform="scale(0.015625)"/>
       <path id="DejaVuSans-79" d="M 2059 -325 
Q 1816 -950 1584 -1140 
Q 1353 -1331 966 -1331 
L 506 -1331 
L 506 -850 
L 844 -850 
Q 1081 -850 1212 -737 
Q 1344 -625 1503 -206 
L 1606 56 
L 191 3500 
L 800 3500 
L 1894 763 
L 2988 3500 
L 3597 3500 
L 2059 -325 
z
" transform="scale(0.015625)"/>
      </defs>
      <use xlink:href="#DejaVuSans-70"/>
      <use xlink:href="#DejaVuSans-72" x="63.476562"/>
      <use xlink:href="#DejaVuSans-6f" x="102.339844"/>
      <use xlink:href="#DejaVuSans-62" x="163.521484"/>
      <use xlink:href="#DejaVuSans-61" x="226.998047"/>
      <use xlink:href="#DejaVuSans-62" x="288.277344"/>
      <use xlink:href="#DejaVuSans-69" x="351.753906"/>
      <use xlink:href="#DejaVuSans-6c" x="379.537109"/>
      <use xlink:href="#DejaVuSans-69" x="407.320312"/>
      <use xlink:href="#DejaVuSans-74" x="435.103516"/>
      <use xlink:href="#DejaVuSans-79" x="474.3125"/>
     </g>
    </g>
   </g>
   <g id="PolyCollection_1">
    <defs>
     <path id="m5565b68eab" d="M 51.531361 -149.242504 
L 51.531361 -54.089531 
L 54.284 -54.089531 
L 57.036639 -54.089531 
L 59.789277 -54.089531 
L 62.541916 -54.089531 
L 65.294555 -54.089531 
L 68.047193 -54.089531 
L 70.799832 -54.089531 
L 73.55247 -54.089531 
L 76.305109 -54.089531 
L 79.057748 -54.089531 
L 81.810386 -54.089531 
L 84.563025 -54.089531 
L 87.315664 -54.089531 
L 90.068302 -54.089531 
L 92.820941 -54.089531 
L 95.57358 -54.089531 
L 98.326218 -54.089531 
L 101.078857 -54.089531 
L 103.831496 -54.089531 
L 106.584134 -54.089531 
L 109.336773 -54.089531 
L 112.089411 -54.089531 
L 114.84205 -54.089531 
L 117.594689 -54.089531 
L 120.347327 -54.089531 
L 123.099966 -54.089531 
L 125.852605 -54.089531 
L 128.605243 -54.089531 
L 131.357882 -54.089531 
L 134.110521 -54.089531 
L 136.863159 -54.089531 
L 139.615798 -54.089531 
L 142.368437 -54.089531 
L 145.121075 -54.089531 
L 147.873714 -54.089531 
L 150.626352 -54.089531 
L 153.378991 -54.089531 
L 156.13163 -54.089531 
L 158.884268 -54.089531 
L 161.636907 -54.089531 
L 164.389546 -54.089531 
L 167.142184 -54.089531 
L 169.894823 -54.089531 
L 172.647462 -54.089531 
L 175.4001 -54.089531 
L 178.152739 -54.089531 
L 180.905378 -54.089531 
L 183.658016 -54.089531 
L 186.410655 -54.089531 
L 189.163293 -54.089531 
L 191.915932 -54.089531 
L 194.668571 -54.089531 
L 197.421209 -54.089531 
L 200.173848 -54.089531 
L 202.926487 -54.089531 
L 205.679125 -54.089531 
L 208.431764 -54.089531 
L 211.184403 -54.089531 
L 213.937041 -54.089531 
L 216.68968 -54.089531 
L 219.442319 -54.089531 
L 222.194957 -54.089531 
L 224.947596 -54.089531 
L 227.700234 -54.089531 
L 230.452873 -54.089531 
L 233.205512 -54.089531 
L 235.95815 -54.089531 
L 238.710789 -54.089531 
L 241.463428 -54.089531 
L 244.216066 -54.089531 
L 246.968705 -54.089531 
L 249.721344 -54.089531 
L 252.473982 -54.089531 
L 255.226621 -54.089531 
L 257.97926 -54.089531 
L 260.731898 -54.089531 
L 263.484537 -54.089531 
L 266.237175 -54.089531 
L 268.989814 -54.089531 
L 271.742453 -54.089531 
L 274.495091 -54.089531 
L 277.24773 -54.089531 
L 280.000369 -54.089531 
L 282.753007 -54.089531 
L 285.505646 -54.089531 
L 288.258285 -54.089531 
L 291.010923 -54.089531 
L 293.763562 -54.089531 
L 296.516201 -54.089531 
L 299.268839 -54.089531 
L 302.021478 -54.089531 
L 304.774116 -54.089531 
L 307.526755 -54.089531 
L 310.279394 -54.089531 
L 313.032032 -54.089531 
L 315.784671 -54.089531 
L 318.53731 -54.089531 
L 321.289948 -54.089531 
L 324.042587 -54.089531 
L 326.795226 -54.089531 
L 329.547864 -54.089531 
L 332.300503 -54.089531 
L 335.053141 -54.089531 
L 337.80578 -54.089531 
L 340.558419 -54.089531 
L 343.311057 -54.089531 
L 346.063696 -54.089531 
L 348.816335 -54.089531 
L 351.568973 -54.089531 
L 354.321612 -54.089531 
L 357.074251 -54.089531 
L 359.826889 -54.089531 
L 362.579528 -54.089531 
L 365.332167 -54.089531 
L 368.084805 -54.089531 
L 370.837444 -54.089531 
L 373.590082 -54.089531 
L 376.342721 -54.089531 
L 379.09536 -54.089531 
L 381.847998 -54.089531 
L 384.600637 -54.089531 
L 387.353276 -54.089531 
L 390.105914 -54.089531 
L 392.858553 -54.089531 
L 395.611192 -54.089531 
L 398.36383 -54.089531 
L 401.116469 -54.089531 
L 403.869108 -54.089531 
L 406.621746 -54.089531 
L 409.374385 -54.089531 
L 412.127023 -54.089531 
L 414.879662 -54.089531 
L 417.632301 -54.089531 
L 420.384939 -54.089531 
L 423.137578 -54.089531 
L 425.890217 -54.089531 
L 428.642855 -54.089531 
L 431.395494 -54.089531 
L 434.148133 -54.089531 
L 436.900771 -54.089531 
L 439.65341 -54.089531 
L 442.406049 -54.089531 
L 445.158687 -54.089531 
L 447.911326 -54.089531 
L 450.663964 -54.089531 
L 453.416603 -54.089531 
L 456.169242 -54.089531 
L 458.92188 -54.089531 
L 461.674519 -54.089531 
L 464.427158 -54.089531 
L 467.179796 -54.089531 
L 469.932435 -54.089531 
L 472.685074 -54.089531 
L 475.437712 -54.089531 
L 478.190351 -54.089531 
L 480.94299 -54.089531 
L 483.695628 -54.089531 
L 486.448267 -54.089531 
L 489.200905 -54.089531 
L 491.953544 -54.089531 
L 494.706183 -54.089531 
L 497.458821 -54.089531 
L 500.21146 -54.089531 
L 502.964099 -54.089531 
L 505.716737 -54.089531 
L 508.469376 -54.089531 
L 511.222015 -54.089531 
L 513.974653 -54.089531 
L 516.727292 -54.089531 
L 519.479931 -54.089531 
L 522.232569 -54.089531 
L 524.985208 -54.089531 
L 527.737846 -54.089531 
L 530.490485 -54.089531 
L 533.243124 -54.089531 
L 535.995762 -54.089531 
L 538.748401 -54.089531 
L 541.50104 -54.089531 
L 544.253678 -54.089531 
L 547.006317 -54.089531 
L 549.758956 -54.089531 
L 552.511594 -54.089531 
L 555.264233 -54.089531 
L 558.016872 -54.089531 
L 560.76951 -54.089531 
L 563.522149 -54.089531 
L 566.274787 -54.089531 
L 569.027426 -54.089531 
L 571.780065 -54.089531 
L 574.532703 -54.089531 
L 577.285342 -54.089531 
L 580.037981 -54.089531 
L 582.790619 -54.089531 
L 585.543258 -54.089531 
L 588.295897 -54.089531 
L 591.048535 -54.089531 
L 593.801174 -54.089531 
L 596.553813 -54.089531 
L 599.306451 -54.089531 
L 599.306451 -346.892224 
L 599.306451 -346.892224 
L 596.553813 -316.497278 
L 593.801174 -281.56618 
L 591.048535 -246.27383 
L 588.295897 -214.381274 
L 585.543258 -188.021813 
L 582.790619 -167.70853 
L 580.037981 -152.992613 
L 577.285342 -143.102436 
L 574.532703 -137.318215 
L 571.780065 -135.110069 
L 569.027426 -136.104137 
L 566.274787 -139.872991 
L 563.522149 -145.507813 
L 560.76951 -151.161658 
L 558.016872 -154.392688 
L 555.264233 -153.884491 
L 552.511594 -150.65538 
L 549.758956 -146.823105 
L 547.006317 -143.835898 
L 544.253678 -142.099746 
L 541.50104 -141.444941 
L 538.748401 -141.550425 
L 535.995762 -142.103576 
L 533.243124 -142.808254 
L 530.490485 -143.370299 
L 527.737846 -143.498558 
L 524.985208 -142.942277 
L 522.232569 -141.617354 
L 519.479931 -139.773485 
L 516.727292 -138.010708 
L 513.974653 -137.067023 
L 511.222015 -137.539213 
L 508.469376 -139.689398 
L 505.716737 -143.311163 
L 502.964099 -147.592421 
L 500.21146 -151.105422 
L 497.458821 -152.27976 
L 494.706183 -150.392715 
L 491.953544 -146.172401 
L 489.200905 -141.233819 
L 486.448267 -137.060974 
L 483.695628 -134.529744 
L 480.94299 -133.96168 
L 478.190351 -135.264685 
L 475.437712 -137.937102 
L 472.685074 -140.995686 
L 469.932435 -143.095017 
L 467.179796 -143.087889 
L 464.427158 -140.767108 
L 461.674519 -137.039731 
L 458.92188 -133.309364 
L 456.169242 -130.709012 
L 453.416603 -129.70921 
L 450.663964 -130.040617 
L 447.911326 -130.793397 
L 445.158687 -130.848477 
L 442.406049 -129.658797 
L 439.65341 -127.672657 
L 436.900771 -125.842092 
L 434.148133 -124.834832 
L 431.395494 -124.685241 
L 428.642855 -124.911572 
L 425.890217 -124.906351 
L 423.137578 -124.377554 
L 420.384939 -123.492623 
L 417.632301 -122.617709 
L 414.879662 -121.990112 
L 412.127023 -121.635605 
L 409.374385 -121.49573 
L 406.621746 -121.547414 
L 403.869108 -121.775055 
L 401.116469 -122.06027 
L 398.36383 -122.172413 
L 395.611192 -121.946752 
L 392.858553 -121.490604 
L 390.105914 -121.139985 
L 387.353276 -121.131082 
L 384.600637 -121.269362 
L 381.847998 -120.940026 
L 379.09536 -119.602497 
L 376.342721 -117.363606 
L 373.590082 -114.928302 
L 370.837444 -113.015535 
L 368.084805 -111.949413 
L 365.332167 -111.671901 
L 362.579528 -111.969681 
L 359.826889 -112.683862 
L 357.074251 -113.734079 
L 354.321612 -114.92512 
L 351.568973 -115.758221 
L 348.816335 -115.616357 
L 346.063696 -114.33594 
L 343.311057 -112.468081 
L 340.558419 -110.793458 
L 337.80578 -109.696388 
L 335.053141 -108.987483 
L 332.300503 -108.162485 
L 329.547864 -106.866767 
L 326.795226 -105.200477 
L 324.042587 -103.58938 
L 321.289948 -102.432097 
L 318.53731 -101.899109 
L 315.784671 -101.953854 
L 313.032032 -102.453826 
L 310.279394 -103.194279 
L 307.526755 -103.855082 
L 304.774116 -103.972928 
L 302.021478 -103.143786 
L 299.268839 -101.385499 
L 296.516201 -99.210966 
L 293.763562 -97.273876 
L 291.010923 -96.01684 
L 288.258285 -95.590569 
L 285.505646 -95.921858 
L 282.753007 -96.772258 
L 280.000369 -97.755954 
L 277.24773 -98.376423 
L 274.495091 -98.165961 
L 271.742453 -96.927028 
L 268.989814 -94.899151 
L 266.237175 -92.655791 
L 263.484537 -90.805122 
L 260.731898 -89.748944 
L 257.97926 -89.595805 
L 255.226621 -90.142846 
L 252.473982 -90.88656 
L 249.721344 -91.184191 
L 246.968705 -90.636702 
L 244.216066 -89.372207 
L 241.463428 -87.878124 
L 238.710789 -86.625941 
L 235.95815 -85.88304 
L 233.205512 -85.718533 
L 230.452873 -86.041641 
L 227.700234 -86.596484 
L 224.947596 -86.95503 
L 222.194957 -86.64726 
L 219.442319 -85.492691 
L 216.68968 -83.829558 
L 213.937041 -82.296989 
L 211.184403 -81.430824 
L 208.431764 -81.477883 
L 205.679125 -82.381297 
L 202.926487 -83.742665 
L 200.173848 -84.817692 
L 197.421209 -84.859571 
L 194.668571 -83.744711 
L 191.915932 -82.061274 
L 189.163293 -80.50704 
L 186.410655 -79.446905 
L 183.658016 -78.917329 
L 180.905378 -78.770926 
L 178.152739 -78.762513 
L 175.4001 -78.580192 
L 172.647462 -77.928937 
L 169.894823 -76.727163 
L 167.142184 -75.228289 
L 164.389546 -73.856815 
L 161.636907 -72.943798 
L 158.884268 -72.624588 
L 156.13163 -72.863229 
L 153.378991 -73.471153 
L 150.626352 -74.098541 
L 147.873714 -74.295955 
L 145.121075 -73.742506 
L 142.368437 -72.493685 
L 139.615798 -70.935388 
L 136.863159 -69.490289 
L 134.110521 -68.420299 
L 131.357882 -67.826003 
L 128.605243 -67.715414 
L 125.852605 -68.042639 
L 123.099966 -68.690885 
L 120.347327 -69.414116 
L 117.594689 -69.816189 
L 114.84205 -69.519416 
L 112.089411 -68.489285 
L 109.336773 -67.090959 
L 106.584134 -65.746381 
L 103.831496 -64.659968 
L 101.078857 -63.827069 
L 98.326218 -63.157658 
L 95.57358 -62.58534 
L 92.820941 -62.120037 
L 90.068302 -61.83434 
L 87.315664 -61.821029 
L 84.563025 -62.171333 
L 81.810386 -62.980075 
L 79.057748 -64.352023 
L 76.305109 -66.38173 
L 73.55247 -69.095299 
L 70.799832 -72.400327 
L 68.047193 -76.167826 
L 65.294555 -80.486614 
L 62.541916 -85.896511 
L 59.789277 -93.463999 
L 57.036639 -104.840608 
L 54.284 -122.406673 
L 51.531361 -149.242504 
z
" style="stroke: #ffffff; stroke-width: 3"/>
    </defs>
    <g clip-path="url(#p7701ca8d34)">
     <use xlink:href="#m5565b68eab" x="0" y="448.628438" style="fill: #fc4f30; stroke: #ffffff; stroke-width: 3"/>
    </g>
   </g>
   <g id="PolyCollection_2">
    <defs>
     <path id="m1984aa30c5" d="M 51.531361 -404.009531 
L 51.531361 -149.242504 
L 54.284 -122.406673 
L 57.036639 -104.840608 
L 59.789277 -93.463999 
L 62.541916 -85.896511 
L 65.294555 -80.486614 
L 68.047193 -76.167826 
L 70.799832 -72.400327 
L 73.55247 -69.095299 
L 76.305109 -66.38173 
L 79.057748 -64.352023 
L 81.810386 -62.980075 
L 84.563025 -62.171333 
L 87.315664 -61.821029 
L 90.068302 -61.83434 
L 92.820941 -62.120037 
L 95.57358 -62.58534 
L 98.326218 -63.157658 
L 101.078857 -63.827069 
L 103.831496 -64.659968 
L 106.584134 -65.746381 
L 109.336773 -67.090959 
L 112.089411 -68.489285 
L 114.84205 -69.519416 
L 117.594689 -69.816189 
L 120.347327 -69.414116 
L 123.099966 -68.690885 
L 125.852605 -68.042639 
L 128.605243 -67.715414 
L 131.357882 -67.826003 
L 134.110521 -68.420299 
L 136.863159 -69.490289 
L 139.615798 -70.935388 
L 142.368437 -72.493685 
L 145.121075 -73.742506 
L 147.873714 -74.295955 
L 150.626352 -74.098541 
L 153.378991 -73.471153 
L 156.13163 -72.863229 
L 158.884268 -72.624588 
L 161.636907 -72.943798 
L 164.389546 -73.856815 
L 167.142184 -75.228289 
L 169.894823 -76.727163 
L 172.647462 -77.928937 
L 175.4001 -78.580192 
L 178.152739 -78.762513 
L 180.905378 -78.770926 
L 183.658016 -78.917329 
L 186.410655 -79.446905 
L 189.163293 -80.50704 
L 191.915932 -82.061274 
L 194.668571 -83.744711 
L 197.421209 -84.859571 
L 200.173848 -84.817692 
L 202.926487 -83.742665 
L 205.679125 -82.381297 
L 208.431764 -81.477883 
L 211.184403 -81.430824 
L 213.937041 -82.296989 
L 216.68968 -83.829558 
L 219.442319 -85.492691 
L 222.194957 -86.64726 
L 224.947596 -86.95503 
L 227.700234 -86.596484 
L 230.452873 -86.041641 
L 233.205512 -85.718533 
L 235.95815 -85.88304 
L 238.710789 -86.625941 
L 241.463428 -87.878124 
L 244.216066 -89.372207 
L 246.968705 -90.636702 
L 249.721344 -91.184191 
L 252.473982 -90.88656 
L 255.226621 -90.142846 
L 257.97926 -89.595805 
L 260.731898 -89.748944 
L 263.484537 -90.805122 
L 266.237175 -92.655791 
L 268.989814 -94.899151 
L 271.742453 -96.927028 
L 274.495091 -98.165961 
L 277.24773 -98.376423 
L 280.000369 -97.755954 
L 282.753007 -96.772258 
L 285.505646 -95.921858 
L 288.258285 -95.590569 
L 291.010923 -96.01684 
L 293.763562 -97.273876 
L 296.516201 -99.210966 
L 299.268839 -101.385499 
L 302.021478 -103.143786 
L 304.774116 -103.972928 
L 307.526755 -103.855082 
L 310.279394 -103.194279 
L 313.032032 -102.453826 
L 315.784671 -101.953854 
L 318.53731 -101.899109 
L 321.289948 -102.432097 
L 324.042587 -103.58938 
L 326.795226 -105.200477 
L 329.547864 -106.866767 
L 332.300503 -108.162485 
L 335.053141 -108.987483 
L 337.80578 -109.696388 
L 340.558419 -110.793458 
L 343.311057 -112.468081 
L 346.063696 -114.33594 
L 348.816335 -115.616357 
L 351.568973 -115.758221 
L 354.321612 -114.92512 
L 357.074251 -113.734079 
L 359.826889 -112.683862 
L 362.579528 -111.969681 
L 365.332167 -111.671901 
L 368.084805 -111.949413 
L 370.837444 -113.015535 
L 373.590082 -114.928302 
L 376.342721 -117.363606 
L 379.09536 -119.602497 
L 381.847998 -120.940026 
L 384.600637 -121.269362 
L 387.353276 -121.131082 
L 390.105914 -121.139985 
L 392.858553 -121.490604 
L 395.611192 -121.946752 
L 398.36383 -122.172413 
L 401.116469 -122.06027 
L 403.869108 -121.775055 
L 406.621746 -121.547414 
L 409.374385 -121.49573 
L 412.127023 -121.635605 
L 414.879662 -121.990112 
L 417.632301 -122.617709 
L 420.384939 -123.492623 
L 423.137578 -124.377554 
L 425.890217 -124.906351 
L 428.642855 -124.911572 
L 431.395494 -124.685241 
L 434.148133 -124.834832 
L 436.900771 -125.842092 
L 439.65341 -127.672657 
L 442.406049 -129.658797 
L 445.158687 -130.848477 
L 447.911326 -130.793397 
L 450.663964 -130.040617 
L 453.416603 -129.70921 
L 456.169242 -130.709012 
L 458.92188 -133.309364 
L 461.674519 -137.039731 
L 464.427158 -140.767108 
L 467.179796 -143.087889 
L 469.932435 -143.095017 
L 472.685074 -140.995686 
L 475.437712 -137.937102 
L 478.190351 -135.264685 
L 480.94299 -133.96168 
L 483.695628 -134.529744 
L 486.448267 -137.060974 
L 489.200905 -141.233819 
L 491.953544 -146.172401 
L 494.706183 -150.392715 
L 497.458821 -152.27976 
L 500.21146 -151.105422 
L 502.964099 -147.592421 
L 505.716737 -143.311163 
L 508.469376 -139.689398 
L 511.222015 -137.539213 
L 513.974653 -137.067023 
L 516.727292 -138.010708 
L 519.479931 -139.773485 
L 522.232569 -141.617354 
L 524.985208 -142.942277 
L 527.737846 -143.498558 
L 530.490485 -143.370299 
L 533.243124 -142.808254 
L 535.995762 -142.103576 
L 538.748401 -141.550425 
L 541.50104 -141.444941 
L 544.253678 -142.099746 
L 547.006317 -143.835898 
L 549.758956 -146.823105 
L 552.511594 -150.65538 
L 555.264233 -153.884491 
L 558.016872 -154.392688 
L 560.76951 -151.161658 
L 563.522149 -145.507813 
L 566.274787 -139.872991 
L 569.027426 -136.104137 
L 571.780065 -135.110069 
L 574.532703 -137.318215 
L 577.285342 -143.102436 
L 580.037981 -152.992613 
L 582.790619 -167.70853 
L 585.543258 -188.021813 
L 588.295897 -214.381274 
L 591.048535 -246.27383 
L 593.801174 -281.56618 
L 596.553813 -316.497278 
L 599.306451 -346.892224 
L 599.306451 -404.009531 
L 599.306451 -404.009531 
L 596.553813 -404.009531 
L 593.801174 -404.009531 
L 591.048535 -404.009531 
L 588.295897 -404.009531 
L 585.543258 -404.009531 
L 582.790619 -404.009531 
L 580.037981 -404.009531 
L 577.285342 -404.009531 
L 574.532703 -404.009531 
L 571.780065 -404.009531 
L 569.027426 -404.009531 
L 566.274787 -404.009531 
L 563.522149 -404.009531 
L 560.76951 -404.009531 
L 558.016872 -404.009531 
L 555.264233 -404.009531 
L 552.511594 -404.009531 
L 549.758956 -404.009531 
L 547.006317 -404.009531 
L 544.253678 -404.009531 
L 541.50104 -404.009531 
L 538.748401 -404.009531 
L 535.995762 -404.009531 
L 533.243124 -404.009531 
L 530.490485 -404.009531 
L 527.737846 -404.009531 
L 524.985208 -404.009531 
L 522.232569 -404.009531 
L 519.479931 -404.009531 
L 516.727292 -404.009531 
L 513.974653 -404.009531 
L 511.222015 -404.009531 
L 508.469376 -404.009531 
L 505.716737 -404.009531 
L 502.964099 -404.009531 
L 500.21146 -404.009531 
L 497.458821 -404.009531 
L 494.706183 -404.009531 
L 491.953544 -404.009531 
L 489.200905 -404.009531 
L 486.448267 -404.009531 
L 483.695628 -404.009531 
L 480.94299 -404.009531 
L 478.190351 -404.009531 
L 475.437712 -404.009531 
L 472.685074 -404.009531 
L 469.932435 -404.009531 
L 467.179796 -404.009531 
L 464.427158 -404.009531 
L 461.674519 -404.009531 
L 458.92188 -404.009531 
L 456.169242 -404.009531 
L 453.416603 -404.009531 
L 450.663964 -404.009531 
L 447.911326 -404.009531 
L 445.158687 -404.009531 
L 442.406049 -404.009531 
L 439.65341 -404.009531 
L 436.900771 -404.009531 
L 434.148133 -404.009531 
L 431.395494 -404.009531 
L 428.642855 -404.009531 
L 425.890217 -404.009531 
L 423.137578 -404.009531 
L 420.384939 -404.009531 
L 417.632301 -404.009531 
L 414.879662 -404.009531 
L 412.127023 -404.009531 
L 409.374385 -404.009531 
L 406.621746 -404.009531 
L 403.869108 -404.009531 
L 401.116469 -404.009531 
L 398.36383 -404.009531 
L 395.611192 -404.009531 
L 392.858553 -404.009531 
L 390.105914 -404.009531 
L 387.353276 -404.009531 
L 384.600637 -404.009531 
L 381.847998 -404.009531 
L 379.09536 -404.009531 
L 376.342721 -404.009531 
L 373.590082 -404.009531 
L 370.837444 -404.009531 
L 368.084805 -404.009531 
L 365.332167 -404.009531 
L 362.579528 -404.009531 
L 359.826889 -404.009531 
L 357.074251 -404.009531 
L 354.321612 -404.009531 
L 351.568973 -404.009531 
L 348.816335 -404.009531 
L 346.063696 -404.009531 
L 343.311057 -404.009531 
L 340.558419 -404.009531 
L 337.80578 -404.009531 
L 335.053141 -404.009531 
L 332.300503 -404.009531 
L 329.547864 -404.009531 
L 326.795226 -404.009531 
L 324.042587 -404.009531 
L 321.289948 -404.009531 
L 318.53731 -404.009531 
L 315.784671 -404.009531 
L 313.032032 -404.009531 
L 310.279394 -404.009531 
L 307.526755 -404.009531 
L 304.774116 -404.009531 
L 302.021478 -404.009531 
L 299.268839 -404.009531 
L 296.516201 -404.009531 
L 293.763562 -404.009531 
L 291.010923 -404.009531 
L 288.258285 -404.009531 
L 285.505646 -404.009531 
L 282.753007 -404.009531 
L 280.000369 -404.009531 
L 277.24773 -404.009531 
L 274.495091 -404.009531 
L 271.742453 -404.009531 
L 268.989814 -404.009531 
L 266.237175 -404.009531 
L 263.484537 -404.009531 
L 260.731898 -404.009531 
L 257.97926 -404.009531 
L 255.226621 -404.009531 
L 252.473982 -404.009531 
L 249.721344 -404.009531 
L 246.968705 -404.009531 
L 244.216066 -404.009531 
L 241.463428 -404.009531 
L 238.710789 -404.009531 
L 235.95815 -404.009531 
L 233.205512 -404.009531 
L 230.452873 -404.009531 
L 227.700234 -404.009531 
L 224.947596 -404.009531 
L 222.194957 -404.009531 
L 219.442319 -404.009531 
L 216.68968 -404.009531 
L 213.937041 -404.009531 
L 211.184403 -404.009531 
L 208.431764 -404.009531 
L 205.679125 -404.009531 
L 202.926487 -404.009531 
L 200.173848 -404.009531 
L 197.421209 -404.009531 
L 194.668571 -404.009531 
L 191.915932 -404.009531 
L 189.163293 -404.009531 
L 186.410655 -404.009531 
L 183.658016 -404.009531 
L 180.905378 -404.009531 
L 178.152739 -404.009531 
L 175.4001 -404.009531 
L 172.647462 -404.009531 
L 169.894823 -404.009531 
L 167.142184 -404.009531 
L 164.389546 -404.009531 
L 161.636907 -404.009531 
L 158.884268 -404.009531 
L 156.13163 -404.009531 
L 153.378991 -404.009531 
L 150.626352 -404.009531 
L 147.873714 -404.009531 
L 145.121075 -404.009531 
L 142.368437 -404.009531 
L 139.615798 -404.009531 
L 136.863159 -404.009531 
L 134.110521 -404.009531 
L 131.357882 -404.009531 
L 128.605243 -404.009531 
L 125.852605 -404.009531 
L 123.099966 -404.009531 
L 120.347327 -404.009531 
L 117.594689 -404.009531 
L 114.84205 -404.009531 
L 112.089411 -404.009531 
L 109.336773 -404.009531 
L 106.584134 -404.009531 
L 103.831496 -404.009531 
L 101.078857 -404.009531 
L 98.326218 -404.009531 
L 95.57358 -404.009531 
L 92.820941 -404.009531 
L 90.068302 -404.009531 
L 87.315664 -404.009531 
L 84.563025 -404.009531 
L 81.810386 -404.009531 
L 79.057748 -404.009531 
L 76.305109 -404.009531 
L 73.55247 -404.009531 
L 70.799832 -404.009531 
L 68.047193 -404.009531 
L 65.294555 -404.009531 
L 62.541916 -404.009531 
L 59.789277 -404.009531 
L 57.036639 -404.009531 
L 54.284 -404.009531 
L 51.531361 -404.009531 
z
" style="stroke: #ffffff; stroke-width: 3"/>
    </defs>
    <g clip-path="url(#p7701ca8d34)">
     <use xlink:href="#m1984aa30c5" x="0" y="448.628438" style="fill: #c2c2c2; stroke: #ffffff; stroke-width: 3"/>
    </g>
   </g>
   <g id="legend_1">
    <g id="patch_3">
     <path d="M 225.039609 26.337422 
L 258.039609 26.337422 
L 258.039609 14.787422 
L 225.039609 14.787422 
z
" style="fill: #c2c2c2; stroke: #ffffff; stroke-width: 3; stroke-linejoin: miter"/>
    </g>
    <g id="text_12">
     <!-- Good -->
     <g style="fill: #262626" transform="translate(271.239609 26.337422)scale(0.165 -0.165)">
      <defs>
       <path id="DejaVuSans-47" d="M 3809 666 
L 3809 1919 
L 2778 1919 
L 2778 2438 
L 4434 2438 
L 4434 434 
Q 4069 175 3628 42 
Q 3188 -91 2688 -91 
Q 1594 -91 976 548 
Q 359 1188 359 2328 
Q 359 3472 976 4111 
Q 1594 4750 2688 4750 
Q 3144 4750 3555 4637 
Q 3966 4525 4313 4306 
L 4313 3634 
Q 3963 3931 3569 4081 
Q 3175 4231 2741 4231 
Q 1884 4231 1454 3753 
Q 1025 3275 1025 2328 
Q 1025 1384 1454 906 
Q 1884 428 2741 428 
Q 3075 428 3337 486 
Q 3600 544 3809 666 
z
" transform="scale(0.015625)"/>
       <path id="DejaVuSans-64" d="M 2906 2969 
L 2906 4863 
L 3481 4863 
L 3481 0 
L 2906 0 
L 2906 525 
Q 2725 213 2448 61 
Q 2172 -91 1784 -91 
Q 1150 -91 751 415 
Q 353 922 353 1747 
Q 353 2572 751 3078 
Q 1150 3584 1784 3584 
Q 2172 3584 2448 3432 
Q 2725 3281 2906 2969 
z
M 947 1747 
Q 947 1113 1208 752 
Q 1469 391 1925 391 
Q 2381 391 2643 752 
Q 2906 1113 2906 1747 
Q 2906 2381 2643 2742 
Q 2381 3103 1925 3103 
Q 1469 3103 1208 2742 
Q 947 2381 947 1747 
z
" transform="scale(0.015625)"/>
      </defs>
      <use xlink:href="#DejaVuSans-47"/>
      <use xlink:href="#DejaVuSans-6f" x="77.490234"/>
      <use xlink:href="#DejaVuSans-6f" x="138.671875"/>
      <use xlink:href="#DejaVuSans-64" x="199.853516"/>
     </g>
    </g>
    <g id="patch_4">
     <path d="M 347.691328 26.337422 
L 380.691328 26.337422 
L 380.691328 14.787422 
L 347.691328 14.787422 
z
" style="fill: #fc4f30; stroke: #ffffff; stroke-width: 3; stroke-linejoin: miter"/>
    </g>
    <g id="text_13">
     <!-- Bad -->
     <g style="fill: #262626" transform="translate(393.891328 26.337422)scale(0.165 -0.165)">
      <defs>
       <path id="DejaVuSans-42" d="M 1259 2228 
L 1259 519 
L 2272 519 
Q 2781 519 3026 730 
Q 3272 941 3272 1375 
Q 3272 1813 3026 2020 
Q 2781 2228 2272 2228 
L 1259 2228 
z
M 1259 4147 
L 1259 2741 
L 2194 2741 
Q 2656 2741 2882 2914 
Q 3109 3088 3109 3444 
Q 3109 3797 2882 3972 
Q 2656 4147 2194 4147 
L 1259 4147 
z
M 628 4666 
L 2241 4666 
Q 2963 4666 3353 4366 
Q 3744 4066 3744 3513 
Q 3744 3084 3544 2831 
Q 3344 2578 2956 2516 
Q 3422 2416 3680 2098 
Q 3938 1781 3938 1306 
Q 3938 681 3513 340 
Q 3088 0 2303 0 
L 628 0 
L 628 4666 
z
" transform="scale(0.015625)"/>
      </defs>
      <use xlink:href="#DejaVuSans-42"/>
      <use xlink:href="#DejaVuSans-61" x="68.603516"/>
      <use xlink:href="#DejaVuSans-64" x="129.882812"/>
     </g>
    </g>
   </g>
  </g>
 </g>
 <defs>
  <clipPath id="p7701ca8d34">
   <rect x="74.858906" y="44.618906" width="501.12" height="349.92"/>
  </clipPath>
 </defs>
</svg>
