<?xml version="1.0" encoding="utf-8" standalone="no"?>
<!DOCTYPE svg PUBLIC "-//W3C//DTD SVG 1.1//EN"
  "http://www.w3.org/Graphics/SVG/1.1/DTD/svg11.dtd">
<svg xmlns:xlink="http://www.w3.org/1999/xlink" width="583.178906pt" height="424.868438pt" viewBox="0 0 583.178906 424.868438" xmlns="http://www.w3.org/2000/svg" version="1.1">
 <metadata>
  <rdf:RDF xmlns:dc="http://purl.org/dc/elements/1.1/" xmlns:cc="http://creativecommons.org/ns#" xmlns:rdf="http://www.w3.org/1999/02/22-rdf-syntax-ns#">
   <cc:Work>
    <dc:type rdf:resource="http://purl.org/dc/dcmitype/StillImage"/>
    <dc:date>2022-04-28T06:31:01.717687</dc:date>
    <dc:format>image/svg+xml</dc:format>
    <dc:creator>
     <cc:Agent>
      <dc:title>Matplotlib v3.5.1, https://matplotlib.org/</dc:title>
     </cc:Agent>
    </dc:creator>
   </cc:Work>
  </rdf:RDF>
 </metadata>
 <defs>
  <style type="text/css">*{stroke-linejoin: round; stroke-linecap: butt}</style>
 </defs>
 <g id="figure_1">
  <g id="patch_1">
   <path d="M 0 424.868438 
L 583.178906 424.868438 
L 583.178906 0 
L 0 0 
z
" style="fill: #ffffff"/>
  </g>
  <g id="axes_1">
   <g id="patch_2">
    <path d="M 74.858906 370.778906 
L 575.978906 370.778906 
L 575.978906 44.618906 
L 74.858906 44.618906 
z
" style="fill: #ffffff"/>
   </g>
   <g id="matplotlib.axis_1">
    <g id="xtick_1">
     <g id="text_1">
      <!-- 0 -->
      <g style="fill: #262626" transform="translate(69.609844 392.816328)scale(0.165 -0.165)">
       <defs>
        <path id="DejaVuSans-30" d="M 2034 4250 
Q 1547 4250 1301 3770 
Q 1056 3291 1056 2328 
Q 1056 1369 1301 889 
Q 1547 409 2034 409 
Q 2525 409 2770 889 
Q 3016 1369 3016 2328 
Q 3016 3291 2770 3770 
Q 2525 4250 2034 4250 
z
M 2034 4750 
Q 2819 4750 3233 4129 
Q 3647 3509 3647 2328 
Q 3647 1150 3233 529 
Q 2819 -91 2034 -91 
Q 1250 -91 836 529 
Q 422 1150 422 2328 
Q 422 3509 836 4129 
Q 1250 4750 2034 4750 
z
" transform="scale(0.015625)"/>
       </defs>
       <use xlink:href="#DejaVuSans-30"/>
      </g>
     </g>
    </g>
    <g id="xtick_2">
     <g id="text_2">
      <!-- 10 -->
      <g style="fill: #262626" transform="translate(133.960781 392.816328)scale(0.165 -0.165)">
       <defs>
        <path id="DejaVuSans-31" d="M 794 531 
L 1825 531 
L 1825 4091 
L 703 3866 
L 703 4441 
L 1819 4666 
L 2450 4666 
L 2450 531 
L 3481 531 
L 3481 0 
L 794 0 
L 794 531 
z
" transform="scale(0.015625)"/>
       </defs>
       <use xlink:href="#DejaVuSans-31"/>
       <use xlink:href="#DejaVuSans-30" x="63.623047"/>
      </g>
     </g>
    </g>
    <g id="xtick_3">
     <g id="text_3">
      <!-- 20 -->
      <g style="fill: #262626" transform="translate(203.560781 392.816328)scale(0.165 -0.165)">
       <defs>
        <path id="DejaVuSans-32" d="M 1228 531 
L 3431 531 
L 3431 0 
L 469 0 
L 469 531 
Q 828 903 1448 1529 
Q 2069 2156 2228 2338 
Q 2531 2678 2651 2914 
Q 2772 3150 2772 3378 
Q 2772 3750 2511 3984 
Q 2250 4219 1831 4219 
Q 1534 4219 1204 4116 
Q 875 4013 500 3803 
L 500 4441 
Q 881 4594 1212 4672 
Q 1544 4750 1819 4750 
Q 2544 4750 2975 4387 
Q 3406 4025 3406 3419 
Q 3406 3131 3298 2873 
Q 3191 2616 2906 2266 
Q 2828 2175 2409 1742 
Q 1991 1309 1228 531 
z
" transform="scale(0.015625)"/>
       </defs>
       <use xlink:href="#DejaVuSans-32"/>
       <use xlink:href="#DejaVuSans-30" x="63.623047"/>
      </g>
     </g>
    </g>
    <g id="xtick_4">
     <g id="text_4">
      <!-- 30 -->
      <g style="fill: #262626" transform="translate(273.160781 392.816328)scale(0.165 -0.165)">
       <defs>
        <path id="DejaVuSans-33" d="M 2597 2516 
Q 3050 2419 3304 2112 
Q 3559 1806 3559 1356 
Q 3559 666 3084 287 
Q 2609 -91 1734 -91 
Q 1441 -91 1130 -33 
Q 819 25 488 141 
L 488 750 
Q 750 597 1062 519 
Q 1375 441 1716 441 
Q 2309 441 2620 675 
Q 2931 909 2931 1356 
Q 2931 1769 2642 2001 
Q 2353 2234 1838 2234 
L 1294 2234 
L 1294 2753 
L 1863 2753 
Q 2328 2753 2575 2939 
Q 2822 3125 2822 3475 
Q 2822 3834 2567 4026 
Q 2313 4219 1838 4219 
Q 1578 4219 1281 4162 
Q 984 4106 628 3988 
L 628 4550 
Q 988 4650 1302 4700 
Q 1616 4750 1894 4750 
Q 2613 4750 3031 4423 
Q 3450 4097 3450 3541 
Q 3450 3153 3228 2886 
Q 3006 2619 2597 2516 
z
" transform="scale(0.015625)"/>
       </defs>
       <use xlink:href="#DejaVuSans-33"/>
       <use xlink:href="#DejaVuSans-30" x="63.623047"/>
      </g>
     </g>
    </g>
    <g id="xtick_5">
     <g id="text_5">
      <!-- 40 -->
      <g style="fill: #262626" transform="translate(342.760781 392.816328)scale(0.165 -0.165)">
       <defs>
        <path id="DejaVuSans-34" d="M 2419 4116 
L 825 1625 
L 2419 1625 
L 2419 4116 
z
M 2253 4666 
L 3047 4666 
L 3047 1625 
L 3713 1625 
L 3713 1100 
L 3047 1100 
L 3047 0 
L 2419 0 
L 2419 1100 
L 313 1100 
L 313 1709 
L 2253 4666 
z
" transform="scale(0.015625)"/>
       </defs>
       <use xlink:href="#DejaVuSans-34"/>
       <use xlink:href="#DejaVuSans-30" x="63.623047"/>
      </g>
     </g>
    </g>
    <g id="xtick_6">
     <g id="text_6">
      <!-- 50 -->
      <g style="fill: #262626" transform="translate(412.360781 392.816328)scale(0.165 -0.165)">
       <defs>
        <path id="DejaVuSans-35" d="M 691 4666 
L 3169 4666 
L 3169 4134 
L 1269 4134 
L 1269 2991 
Q 1406 3038 1543 3061 
Q 1681 3084 1819 3084 
Q 2600 3084 3056 2656 
Q 3513 2228 3513 1497 
Q 3513 744 3044 326 
Q 2575 -91 1722 -91 
Q 1428 -91 1123 -41 
Q 819 9 494 109 
L 494 744 
Q 775 591 1075 516 
Q 1375 441 1709 441 
Q 2250 441 2565 725 
Q 2881 1009 2881 1497 
Q 2881 1984 2565 2268 
Q 2250 2553 1709 2553 
Q 1456 2553 1204 2497 
Q 953 2441 691 2322 
L 691 4666 
z
" transform="scale(0.015625)"/>
       </defs>
       <use xlink:href="#DejaVuSans-35"/>
       <use xlink:href="#DejaVuSans-30" x="63.623047"/>
      </g>
     </g>
    </g>
    <g id="xtick_7">
     <g id="text_7">
      <!-- 60 -->
      <g style="fill: #262626" transform="translate(481.960781 392.816328)scale(0.165 -0.165)">
       <defs>
        <path id="DejaVuSans-36" d="M 2113 2584 
Q 1688 2584 1439 2293 
Q 1191 2003 1191 1497 
Q 1191 994 1439 701 
Q 1688 409 2113 409 
Q 2538 409 2786 701 
Q 3034 994 3034 1497 
Q 3034 2003 2786 2293 
Q 2538 2584 2113 2584 
z
M 3366 4563 
L 3366 3988 
Q 3128 4100 2886 4159 
Q 2644 4219 2406 4219 
Q 1781 4219 1451 3797 
Q 1122 3375 1075 2522 
Q 1259 2794 1537 2939 
Q 1816 3084 2150 3084 
Q 2853 3084 3261 2657 
Q 3669 2231 3669 1497 
Q 3669 778 3244 343 
Q 2819 -91 2113 -91 
Q 1303 -91 875 529 
Q 447 1150 447 2328 
Q 447 3434 972 4092 
Q 1497 4750 2381 4750 
Q 2619 4750 2861 4703 
Q 3103 4656 3366 4563 
z
" transform="scale(0.015625)"/>
       </defs>
       <use xlink:href="#DejaVuSans-36"/>
       <use xlink:href="#DejaVuSans-30" x="63.623047"/>
      </g>
     </g>
    </g>
    <g id="xtick_8">
     <g id="text_8">
      <!-- 70 -->
      <g style="fill: #262626" transform="translate(551.560781 392.816328)scale(0.165 -0.165)">
       <defs>
        <path id="DejaVuSans-37" d="M 525 4666 
L 3525 4666 
L 3525 4397 
L 1831 0 
L 1172 0 
L 2766 4134 
L 525 4134 
L 525 4666 
z
" transform="scale(0.015625)"/>
       </defs>
       <use xlink:href="#DejaVuSans-37"/>
       <use xlink:href="#DejaVuSans-30" x="63.623047"/>
      </g>
     </g>
    </g>
    <g id="text_9">
     <!-- tenure -->
     <g style="fill: #262626" transform="translate(295.910156 413.925)scale(0.18 -0.18)">
      <defs>
       <path id="DejaVuSans-74" d="M 1172 4494 
L 1172 3500 
L 2356 3500 
L 2356 3053 
L 1172 3053 
L 1172 1153 
Q 1172 725 1289 603 
Q 1406 481 1766 481 
L 2356 481 
L 2356 0 
L 1766 0 
Q 1100 0 847 248 
Q 594 497 594 1153 
L 594 3053 
L 172 3053 
L 172 3500 
L 594 3500 
L 594 4494 
L 1172 4494 
z
" transform="scale(0.015625)"/>
       <path id="DejaVuSans-65" d="M 3597 1894 
L 3597 1613 
L 953 1613 
Q 991 1019 1311 708 
Q 1631 397 2203 397 
Q 2534 397 2845 478 
Q 3156 559 3463 722 
L 3463 178 
Q 3153 47 2828 -22 
Q 2503 -91 2169 -91 
Q 1331 -91 842 396 
Q 353 884 353 1716 
Q 353 2575 817 3079 
Q 1281 3584 2069 3584 
Q 2775 3584 3186 3129 
Q 3597 2675 3597 1894 
z
M 3022 2063 
Q 3016 2534 2758 2815 
Q 2500 3097 2075 3097 
Q 1594 3097 1305 2825 
Q 1016 2553 972 2059 
L 3022 2063 
z
" transform="scale(0.015625)"/>
       <path id="DejaVuSans-6e" d="M 3513 2113 
L 3513 0 
L 2938 0 
L 2938 2094 
Q 2938 2591 2744 2837 
Q 2550 3084 2163 3084 
Q 1697 3084 1428 2787 
Q 1159 2491 1159 1978 
L 1159 0 
L 581 0 
L 581 3500 
L 1159 3500 
L 1159 2956 
Q 1366 3272 1645 3428 
Q 1925 3584 2291 3584 
Q 2894 3584 3203 3211 
Q 3513 2838 3513 2113 
z
" transform="scale(0.015625)"/>
       <path id="DejaVuSans-75" d="M 544 1381 
L 544 3500 
L 1119 3500 
L 1119 1403 
Q 1119 906 1312 657 
Q 1506 409 1894 409 
Q 2359 409 2629 706 
Q 2900 1003 2900 1516 
L 2900 3500 
L 3475 3500 
L 3475 0 
L 2900 0 
L 2900 538 
Q 2691 219 2414 64 
Q 2138 -91 1772 -91 
Q 1169 -91 856 284 
Q 544 659 544 1381 
z
M 1991 3584 
L 1991 3584 
z
" transform="scale(0.015625)"/>
       <path id="DejaVuSans-72" d="M 2631 2963 
Q 2534 3019 2420 3045 
Q 2306 3072 2169 3072 
Q 1681 3072 1420 2755 
Q 1159 2438 1159 1844 
L 1159 0 
L 581 0 
L 581 3500 
L 1159 3500 
L 1159 2956 
Q 1341 3275 1631 3429 
Q 1922 3584 2338 3584 
Q 2397 3584 2469 3576 
Q 2541 3569 2628 3553 
L 2631 2963 
z
" transform="scale(0.015625)"/>
      </defs>
      <use xlink:href="#DejaVuSans-74"/>
      <use xlink:href="#DejaVuSans-65" x="39.208984"/>
      <use xlink:href="#DejaVuSans-6e" x="100.732422"/>
      <use xlink:href="#DejaVuSans-75" x="164.111328"/>
      <use xlink:href="#DejaVuSans-72" x="227.490234"/>
      <use xlink:href="#DejaVuSans-65" x="266.353516"/>
     </g>
    </g>
   </g>
   <g id="matplotlib.axis_2">
    <g id="ytick_1">
     <g id="text_10">
      <!-- 0.00 -->
      <g style="fill: #262626" transform="translate(28.620625 377.047617)scale(0.165 -0.165)">
       <defs>
        <path id="DejaVuSans-2e" d="M 684 794 
L 1344 794 
L 1344 0 
L 684 0 
L 684 794 
z
" transform="scale(0.015625)"/>
       </defs>
       <use xlink:href="#DejaVuSans-30"/>
       <use xlink:href="#DejaVuSans-2e" x="63.623047"/>
       <use xlink:href="#DejaVuSans-30" x="95.410156"/>
       <use xlink:href="#DejaVuSans-30" x="159.033203"/>
      </g>
     </g>
    </g>
    <g id="ytick_2">
     <g id="text_11">
      <!-- 0.25 -->
      <g style="fill: #262626" transform="translate(28.620625 295.507617)scale(0.165 -0.165)">
       <use xlink:href="#DejaVuSans-30"/>
       <use xlink:href="#DejaVuSans-2e" x="63.623047"/>
       <use xlink:href="#DejaVuSans-32" x="95.410156"/>
       <use xlink:href="#DejaVuSans-35" x="159.033203"/>
      </g>
     </g>
    </g>
    <g id="ytick_3">
     <g id="text_12">
      <!-- 0.50 -->
      <g style="fill: #262626" transform="translate(28.620625 213.967617)scale(0.165 -0.165)">
       <use xlink:href="#DejaVuSans-30"/>
       <use xlink:href="#DejaVuSans-2e" x="63.623047"/>
       <use xlink:href="#DejaVuSans-35" x="95.410156"/>
       <use xlink:href="#DejaVuSans-30" x="159.033203"/>
      </g>
     </g>
    </g>
    <g id="ytick_4">
     <g id="text_13">
      <!-- 0.75 -->
      <g style="fill: #262626" transform="translate(28.620625 132.427617)scale(0.165 -0.165)">
       <use xlink:href="#DejaVuSans-30"/>
       <use xlink:href="#DejaVuSans-2e" x="63.623047"/>
       <use xlink:href="#DejaVuSans-37" x="95.410156"/>
       <use xlink:href="#DejaVuSans-35" x="159.033203"/>
      </g>
     </g>
    </g>
    <g id="ytick_5">
     <g id="text_14">
      <!-- 1.00 -->
      <g style="fill: #262626" transform="translate(28.620625 50.887617)scale(0.165 -0.165)">
       <use xlink:href="#DejaVuSans-31"/>
       <use xlink:href="#DejaVuSans-2e" x="63.623047"/>
       <use xlink:href="#DejaVuSans-30" x="95.410156"/>
       <use xlink:href="#DejaVuSans-30" x="159.033203"/>
      </g>
     </g>
    </g>
    <g id="text_15">
     <!-- probability -->
     <g style="fill: #262626" transform="translate(20.877188 255.715313)rotate(-90)scale(0.18 -0.18)">
      <defs>
       <path id="DejaVuSans-70" d="M 1159 525 
L 1159 -1331 
L 581 -1331 
L 581 3500 
L 1159 3500 
L 1159 2969 
Q 1341 3281 1617 3432 
Q 1894 3584 2278 3584 
Q 2916 3584 3314 3078 
Q 3713 2572 3713 1747 
Q 3713 922 3314 415 
Q 2916 -91 2278 -91 
Q 1894 -91 1617 61 
Q 1341 213 1159 525 
z
M 3116 1747 
Q 3116 2381 2855 2742 
Q 2594 3103 2138 3103 
Q 1681 3103 1420 2742 
Q 1159 2381 1159 1747 
Q 1159 1113 1420 752 
Q 1681 391 2138 391 
Q 2594 391 2855 752 
Q 3116 1113 3116 1747 
z
" transform="scale(0.015625)"/>
       <path id="DejaVuSans-6f" d="M 1959 3097 
Q 1497 3097 1228 2736 
Q 959 2375 959 1747 
Q 959 1119 1226 758 
Q 1494 397 1959 397 
Q 2419 397 2687 759 
Q 2956 1122 2956 1747 
Q 2956 2369 2687 2733 
Q 2419 3097 1959 3097 
z
M 1959 3584 
Q 2709 3584 3137 3096 
Q 3566 2609 3566 1747 
Q 3566 888 3137 398 
Q 2709 -91 1959 -91 
Q 1206 -91 779 398 
Q 353 888 353 1747 
Q 353 2609 779 3096 
Q 1206 3584 1959 3584 
z
" transform="scale(0.015625)"/>
       <path id="DejaVuSans-62" d="M 3116 1747 
Q 3116 2381 2855 2742 
Q 2594 3103 2138 3103 
Q 1681 3103 1420 2742 
Q 1159 2381 1159 1747 
Q 1159 1113 1420 752 
Q 1681 391 2138 391 
Q 2594 391 2855 752 
Q 3116 1113 3116 1747 
z
M 1159 2969 
Q 1341 3281 1617 3432 
Q 1894 3584 2278 3584 
Q 2916 3584 3314 3078 
Q 3713 2572 3713 1747 
Q 3713 922 3314 415 
Q 2916 -91 2278 -91 
Q 1894 -91 1617 61 
Q 1341 213 1159 525 
L 1159 0 
L 581 0 
L 581 4863 
L 1159 4863 
L 1159 2969 
z
" transform="scale(0.015625)"/>
       <path id="DejaVuSans-61" d="M 2194 1759 
Q 1497 1759 1228 1600 
Q 959 1441 959 1056 
Q 959 750 1161 570 
Q 1363 391 1709 391 
Q 2188 391 2477 730 
Q 2766 1069 2766 1631 
L 2766 1759 
L 2194 1759 
z
M 3341 1997 
L 3341 0 
L 2766 0 
L 2766 531 
Q 2569 213 2275 61 
Q 1981 -91 1556 -91 
Q 1019 -91 701 211 
Q 384 513 384 1019 
Q 384 1609 779 1909 
Q 1175 2209 1959 2209 
L 2766 2209 
L 2766 2266 
Q 2766 2663 2505 2880 
Q 2244 3097 1772 3097 
Q 1472 3097 1187 3025 
Q 903 2953 641 2809 
L 641 3341 
Q 956 3463 1253 3523 
Q 1550 3584 1831 3584 
Q 2591 3584 2966 3190 
Q 3341 2797 3341 1997 
z
" transform="scale(0.015625)"/>
       <path id="DejaVuSans-69" d="M 603 3500 
L 1178 3500 
L 1178 0 
L 603 0 
L 603 3500 
z
M 603 4863 
L 1178 4863 
L 1178 4134 
L 603 4134 
L 603 4863 
z
" transform="scale(0.015625)"/>
       <path id="DejaVuSans-6c" d="M 603 4863 
L 1178 4863 
L 1178 0 
L 603 0 
L 603 4863 
z
" transform="scale(0.015625)"/>
       <path id="DejaVuSans-79" d="M 2059 -325 
Q 1816 -950 1584 -1140 
Q 1353 -1331 966 -1331 
L 506 -1331 
L 506 -850 
L 844 -850 
Q 1081 -850 1212 -737 
Q 1344 -625 1503 -206 
L 1606 56 
L 191 3500 
L 800 3500 
L 1894 763 
L 2988 3500 
L 3597 3500 
L 2059 -325 
z
" transform="scale(0.015625)"/>
      </defs>
      <use xlink:href="#DejaVuSans-70"/>
      <use xlink:href="#DejaVuSans-72" x="63.476562"/>
      <use xlink:href="#DejaVuSans-6f" x="102.339844"/>
      <use xlink:href="#DejaVuSans-62" x="163.521484"/>
      <use xlink:href="#DejaVuSans-61" x="226.998047"/>
      <use xlink:href="#DejaVuSans-62" x="288.277344"/>
      <use xlink:href="#DejaVuSans-69" x="351.753906"/>
      <use xlink:href="#DejaVuSans-6c" x="379.537109"/>
      <use xlink:href="#DejaVuSans-69" x="407.320312"/>
      <use xlink:href="#DejaVuSans-74" x="435.103516"/>
      <use xlink:href="#DejaVuSans-79" x="474.3125"/>
     </g>
    </g>
   </g>
   <g id="PolyCollection_1">
    <path d="M -12.317335 188.019389 
L -12.317335 370.778906 
L -8.923001 370.778906 
L -5.528667 370.778906 
L -2.134333 370.778906 
L 1.260001 370.778906 
L 4.654335 370.778906 
L 8.048669 370.778906 
L 11.443003 370.778906 
L 14.837337 370.778906 
L 18.231671 370.778906 
L 21.626005 370.778906 
L 25.02034 370.778906 
L 28.414674 370.778906 
L 31.809008 370.778906 
L 35.203342 370.778906 
L 38.597676 370.778906 
L 41.99201 370.778906 
L 45.386344 370.778906 
L 48.780678 370.778906 
L 52.175012 370.778906 
L 55.569346 370.778906 
L 58.96368 370.778906 
L 62.358014 370.778906 
L 65.752349 370.778906 
L 69.146683 370.778906 
L 72.541017 370.778906 
L 75.935351 370.778906 
L 79.329685 370.778906 
L 82.724019 370.778906 
L 86.118353 370.778906 
L 89.512687 370.778906 
L 92.907021 370.778906 
L 96.301355 370.778906 
L 99.695689 370.778906 
L 103.090024 370.778906 
L 106.484358 370.778906 
L 109.878692 370.778906 
L 113.273026 370.778906 
L 116.66736 370.778906 
L 120.061694 370.778906 
L 123.456028 370.778906 
L 126.850362 370.778906 
L 130.244696 370.778906 
L 133.63903 370.778906 
L 137.033364 370.778906 
L 140.427698 370.778906 
L 143.822033 370.778906 
L 147.216367 370.778906 
L 150.610701 370.778906 
L 154.005035 370.778906 
L 157.399369 370.778906 
L 160.793703 370.778906 
L 164.188037 370.778906 
L 167.582371 370.778906 
L 170.976705 370.778906 
L 174.371039 370.778906 
L 177.765373 370.778906 
L 181.159708 370.778906 
L 184.554042 370.778906 
L 187.948376 370.778906 
L 191.34271 370.778906 
L 194.737044 370.778906 
L 198.131378 370.778906 
L 201.525712 370.778906 
L 204.920046 370.778906 
L 208.31438 370.778906 
L 211.708714 370.778906 
L 215.103048 370.778906 
L 218.497382 370.778906 
L 221.891717 370.778906 
L 225.286051 370.778906 
L 228.680385 370.778906 
L 232.074719 370.778906 
L 235.469053 370.778906 
L 238.863387 370.778906 
L 242.257721 370.778906 
L 245.652055 370.778906 
L 249.046389 370.778906 
L 252.440723 370.778906 
L 255.835057 370.778906 
L 259.229392 370.778906 
L 262.623726 370.778906 
L 266.01806 370.778906 
L 269.412394 370.778906 
L 272.806728 370.778906 
L 276.201062 370.778906 
L 279.595396 370.778906 
L 282.98973 370.778906 
L 286.384064 370.778906 
L 289.778398 370.778906 
L 293.172732 370.778906 
L 296.567067 370.778906 
L 299.961401 370.778906 
L 303.355735 370.778906 
L 306.750069 370.778906 
L 310.144403 370.778906 
L 313.538737 370.778906 
L 316.933071 370.778906 
L 320.327405 370.778906 
L 323.721739 370.778906 
L 327.116073 370.778906 
L 330.510407 370.778906 
L 333.904741 370.778906 
L 337.299076 370.778906 
L 340.69341 370.778906 
L 344.087744 370.778906 
L 347.482078 370.778906 
L 350.876412 370.778906 
L 354.270746 370.778906 
L 357.66508 370.778906 
L 361.059414 370.778906 
L 364.453748 370.778906 
L 367.848082 370.778906 
L 371.242416 370.778906 
L 374.636751 370.778906 
L 378.031085 370.778906 
L 381.425419 370.778906 
L 384.819753 370.778906 
L 388.214087 370.778906 
L 391.608421 370.778906 
L 395.002755 370.778906 
L 398.397089 370.778906 
L 401.791423 370.778906 
L 405.185757 370.778906 
L 408.580091 370.778906 
L 411.974425 370.778906 
L 415.36876 370.778906 
L 418.763094 370.778906 
L 422.157428 370.778906 
L 425.551762 370.778906 
L 428.946096 370.778906 
L 432.34043 370.778906 
L 435.734764 370.778906 
L 439.129098 370.778906 
L 442.523432 370.778906 
L 445.917766 370.778906 
L 449.3121 370.778906 
L 452.706435 370.778906 
L 456.100769 370.778906 
L 459.495103 370.778906 
L 462.889437 370.778906 
L 466.283771 370.778906 
L 469.678105 370.778906 
L 473.072439 370.778906 
L 476.466773 370.778906 
L 479.861107 370.778906 
L 483.255441 370.778906 
L 486.649775 370.778906 
L 490.044109 370.778906 
L 493.438444 370.778906 
L 496.832778 370.778906 
L 500.227112 370.778906 
L 503.621446 370.778906 
L 507.01578 370.778906 
L 510.410114 370.778906 
L 513.804448 370.778906 
L 517.198782 370.778906 
L 520.593116 370.778906 
L 523.98745 370.778906 
L 527.381784 370.778906 
L 530.776119 370.778906 
L 534.170453 370.778906 
L 537.564787 370.778906 
L 540.959121 370.778906 
L 544.353455 370.778906 
L 547.747789 370.778906 
L 551.142123 370.778906 
L 554.536457 370.778906 
L 557.930791 370.778906 
L 561.325125 370.778906 
L 564.719459 370.778906 
L 568.113793 370.778906 
L 571.508128 370.778906 
L 574.902462 370.778906 
L 578.296796 370.778906 
L 581.69113 370.778906 
L 585.085464 370.778906 
L 588.479798 370.778906 
L 591.874132 370.778906 
L 595.268466 370.778906 
L 598.6628 370.778906 
L 602.057134 370.778906 
L 605.451468 370.778906 
L 608.845803 370.778906 
L 612.240137 370.778906 
L 615.634471 370.778906 
L 619.028805 370.778906 
L 622.423139 370.778906 
L 625.817473 370.778906 
L 629.211807 370.778906 
L 632.606141 370.778906 
L 636.000475 370.778906 
L 639.394809 370.778906 
L 642.789143 370.778906 
L 646.183478 370.778906 
L 649.577812 370.778906 
L 652.972146 370.778906 
L 656.36648 370.778906 
L 659.760814 370.778906 
L 663.155148 370.778906 
L 663.155148 362.532589 
L 663.155148 362.532589 
L 659.760814 362.352121 
L 656.36648 362.163582 
L 652.972146 361.966402 
L 649.577812 361.759969 
L 646.183478 361.543631 
L 642.789143 361.316685 
L 639.394809 361.078385 
L 636.000475 360.827935 
L 632.606141 360.564488 
L 629.211807 360.28715 
L 625.817473 359.994978 
L 622.423139 359.686986 
L 619.028805 359.362145 
L 615.634471 359.019396 
L 612.240137 358.657654 
L 608.845803 358.275825 
L 605.451468 357.872823 
L 602.057134 357.447588 
L 598.6628 356.99912 
L 595.268466 356.526507 
L 591.874132 356.028967 
L 588.479798 355.505894 
L 585.085464 354.956911 
L 581.69113 354.38193 
L 578.296796 353.781209 
L 574.902462 353.155421 
L 571.508128 352.505712 
L 568.113793 351.833747 
L 564.719459 351.141748 
L 561.325125 350.432495 
L 557.930791 349.709301 
L 554.536457 348.975924 
L 551.142123 348.236434 
L 547.747789 347.495009 
L 544.353455 346.755668 
L 540.959121 346.021948 
L 537.564787 345.296548 
L 534.170453 344.580974 
L 530.776119 343.875225 
L 527.381784 343.177579 
L 523.98745 342.484523 
L 520.593116 341.790872 
L 517.198782 341.090096 
L 513.804448 340.374839 
L 510.410114 339.637592 
L 507.01578 338.871455 
L 503.621446 338.070883 
L 500.227112 337.232345 
L 496.832778 336.354796 
L 493.438444 335.439922 
L 490.044109 334.492119 
L 486.649775 333.51823 
L 483.255441 332.527062 
L 479.861107 331.528767 
L 476.466773 330.534126 
L 473.072439 329.553838 
L 469.678105 328.597857 
L 466.283771 327.674845 
L 462.889437 326.791757 
L 459.495103 325.953589 
L 456.100769 325.163276 
L 452.706435 324.421734 
L 449.3121 323.728014 
L 445.917766 323.079527 
L 442.523432 322.472327 
L 439.129098 321.901404 
L 435.734764 321.360961 
L 432.34043 320.844668 
L 428.946096 320.345867 
L 425.551762 319.857747 
L 422.157428 319.373469 
L 418.763094 318.886285 
L 415.36876 318.389642 
L 411.974425 317.877303 
L 408.580091 317.343494 
L 405.185757 316.783085 
L 401.791423 316.191815 
L 398.397089 315.566533 
L 395.002755 314.905449 
L 391.608421 314.208376 
L 388.214087 313.476902 
L 384.819753 312.714496 
L 381.425419 311.92649 
L 378.031085 311.11994 
L 374.636751 310.303343 
L 371.242416 309.486235 
L 367.848082 308.678684 
L 364.453748 307.890718 
L 361.059414 307.131739 
L 357.66508 306.409968 
L 354.270746 305.73198 
L 350.876412 305.102364 
L 347.482078 304.523545 
L 344.087744 303.995781 
L 340.69341 303.517326 
L 337.299076 303.084749 
L 333.904741 302.693355 
L 330.510407 302.337668 
L 327.116073 302.011922 
L 323.721739 301.710508 
L 320.327405 301.428317 
L 316.933071 301.160976 
L 313.538737 300.904934 
L 310.144403 300.657411 
L 306.750069 300.416233 
L 303.355735 300.17957 
L 299.961401 299.945631 
L 296.567067 299.712349 
L 293.172732 299.477105 
L 289.778398 299.236522 
L 286.384064 298.986358 
L 282.98973 298.721506 
L 279.595396 298.436094 
L 276.201062 298.123671 
L 272.806728 297.77745 
L 269.412394 297.390567 
L 266.01806 296.956333 
L 262.623726 296.46844 
L 259.229392 295.921122 
L 255.835057 295.309246 
L 252.440723 294.628355 
L 249.046389 293.874679 
L 245.652055 293.045126 
L 242.257721 292.13729 
L 238.863387 291.149482 
L 235.469053 290.080804 
L 232.074719 288.931274 
L 228.680385 287.701968 
L 225.286051 286.39519 
L 221.891717 285.014611 
L 218.497382 283.565361 
L 215.103048 282.054032 
L 211.708714 280.48855 
L 208.31438 278.877912 
L 204.920046 277.231784 
L 201.525712 275.559951 
L 198.131378 273.871685 
L 194.737044 272.175046 
L 191.34271 270.476197 
L 187.948376 268.778774 
L 184.554042 267.083385 
L 181.159708 265.387279 
L 177.765373 263.684231 
L 174.371039 261.964676 
L 170.976705 260.216103 
L 167.582371 258.423721 
L 164.188037 256.571368 
L 160.793703 254.642646 
L 157.399369 252.622204 
L 154.005035 250.497098 
L 150.610701 248.258098 
L 147.216367 245.900827 
L 143.822033 243.42659 
L 140.427698 240.842772 
L 137.033364 238.162747 
L 133.63903 235.405267 
L 130.244696 232.593403 
L 126.850362 229.753148 
L 123.456028 226.911855 
L 120.061694 224.09668 
L 116.66736 221.333197 
L 113.273026 218.644294 
L 109.878692 216.049417 
L 106.484358 213.564173 
L 103.090024 211.200249 
L 99.695689 208.965589 
L 96.301355 206.864761 
L 92.907021 204.899419 
L 89.512687 203.068822 
L 86.118353 201.370345 
L 82.724019 199.799956 
L 79.329685 198.352631 
L 75.935351 197.02271 
L 72.541017 195.804186 
L 69.146683 194.690926 
L 65.752349 193.676848 
L 62.358014 192.756039 
L 58.96368 191.922845 
L 55.569346 191.171921 
L 52.175012 190.49827 
L 48.780678 189.89725 
L 45.386344 189.364578 
L 41.99201 188.896319 
L 38.597676 188.488876 
L 35.203342 188.138965 
L 31.809008 187.843601 
L 28.414674 187.60007 
L 25.02034 187.405912 
L 21.626005 187.258896 
L 18.231671 187.157005 
L 14.837337 187.09841 
L 11.443003 187.081457 
L 8.048669 187.104649 
L 4.654335 187.166634 
L 1.260001 187.266185 
L -2.134333 187.402193 
L -5.528667 187.573655 
L -8.923001 187.779661 
L -12.317335 188.019389 
z
" clip-path="url(#p79f9badb40)" style="fill: #fc4f30; fill-opacity: 0.9; stroke: #ffffff; stroke-width: 3"/>
   </g>
   <g id="PolyCollection_2">
    <path d="M -12.317335 44.618906 
L -12.317335 188.019389 
L -8.923001 187.779661 
L -5.528667 187.573655 
L -2.134333 187.402193 
L 1.260001 187.266185 
L 4.654335 187.166634 
L 8.048669 187.104649 
L 11.443003 187.081457 
L 14.837337 187.09841 
L 18.231671 187.157005 
L 21.626005 187.258896 
L 25.02034 187.405912 
L 28.414674 187.60007 
L 31.809008 187.843601 
L 35.203342 188.138965 
L 38.597676 188.488876 
L 41.99201 188.896319 
L 45.386344 189.364578 
L 48.780678 189.89725 
L 52.175012 190.49827 
L 55.569346 191.171921 
L 58.96368 191.922845 
L 62.358014 192.756039 
L 65.752349 193.676848 
L 69.146683 194.690926 
L 72.541017 195.804186 
L 75.935351 197.02271 
L 79.329685 198.352631 
L 82.724019 199.799956 
L 86.118353 201.370345 
L 89.512687 203.068822 
L 92.907021 204.899419 
L 96.301355 206.864761 
L 99.695689 208.965589 
L 103.090024 211.200249 
L 106.484358 213.564173 
L 109.878692 216.049417 
L 113.273026 218.644294 
L 116.66736 221.333197 
L 120.061694 224.09668 
L 123.456028 226.911855 
L 126.850362 229.753148 
L 130.244696 232.593403 
L 133.63903 235.405267 
L 137.033364 238.162747 
L 140.427698 240.842772 
L 143.822033 243.42659 
L 147.216367 245.900827 
L 150.610701 248.258098 
L 154.005035 250.497098 
L 157.399369 252.622204 
L 160.793703 254.642646 
L 164.188037 256.571368 
L 167.582371 258.423721 
L 170.976705 260.216103 
L 174.371039 261.964676 
L 177.765373 263.684231 
L 181.159708 265.387279 
L 184.554042 267.083385 
L 187.948376 268.778774 
L 191.34271 270.476197 
L 194.737044 272.175046 
L 198.131378 273.871685 
L 201.525712 275.559951 
L 204.920046 277.231784 
L 208.31438 278.877912 
L 211.708714 280.48855 
L 215.103048 282.054032 
L 218.497382 283.565361 
L 221.891717 285.014611 
L 225.286051 286.39519 
L 228.680385 287.701968 
L 232.074719 288.931274 
L 235.469053 290.080804 
L 238.863387 291.149482 
L 242.257721 292.13729 
L 245.652055 293.045126 
L 249.046389 293.874679 
L 252.440723 294.628355 
L 255.835057 295.309246 
L 259.229392 295.921122 
L 262.623726 296.46844 
L 266.01806 296.956333 
L 269.412394 297.390567 
L 272.806728 297.77745 
L 276.201062 298.123671 
L 279.595396 298.436094 
L 282.98973 298.721506 
L 286.384064 298.986358 
L 289.778398 299.236522 
L 293.172732 299.477105 
L 296.567067 299.712349 
L 299.961401 299.945631 
L 303.355735 300.17957 
L 306.750069 300.416233 
L 310.144403 300.657411 
L 313.538737 300.904934 
L 316.933071 301.160976 
L 320.327405 301.428317 
L 323.721739 301.710508 
L 327.116073 302.011922 
L 330.510407 302.337668 
L 333.904741 302.693355 
L 337.299076 303.084749 
L 340.69341 303.517326 
L 344.087744 303.995781 
L 347.482078 304.523545 
L 350.876412 305.102364 
L 354.270746 305.73198 
L 357.66508 306.409968 
L 361.059414 307.131739 
L 364.453748 307.890718 
L 367.848082 308.678684 
L 371.242416 309.486235 
L 374.636751 310.303343 
L 378.031085 311.11994 
L 381.425419 311.92649 
L 384.819753 312.714496 
L 388.214087 313.476902 
L 391.608421 314.208376 
L 395.002755 314.905449 
L 398.397089 315.566533 
L 401.791423 316.191815 
L 405.185757 316.783085 
L 408.580091 317.343494 
L 411.974425 317.877303 
L 415.36876 318.389642 
L 418.763094 318.886285 
L 422.157428 319.373469 
L 425.551762 319.857747 
L 428.946096 320.345867 
L 432.34043 320.844668 
L 435.734764 321.360961 
L 439.129098 321.901404 
L 442.523432 322.472327 
L 445.917766 323.079527 
L 449.3121 323.728014 
L 452.706435 324.421734 
L 456.100769 325.163276 
L 459.495103 325.953589 
L 462.889437 326.791757 
L 466.283771 327.674845 
L 469.678105 328.597857 
L 473.072439 329.553838 
L 476.466773 330.534126 
L 479.861107 331.528767 
L 483.255441 332.527062 
L 486.649775 333.51823 
L 490.044109 334.492119 
L 493.438444 335.439922 
L 496.832778 336.354796 
L 500.227112 337.232345 
L 503.621446 338.070883 
L 507.01578 338.871455 
L 510.410114 339.637592 
L 513.804448 340.374839 
L 517.198782 341.090096 
L 520.593116 341.790872 
L 523.98745 342.484523 
L 527.381784 343.177579 
L 530.776119 343.875225 
L 534.170453 344.580974 
L 537.564787 345.296548 
L 540.959121 346.021948 
L 544.353455 346.755668 
L 547.747789 347.495009 
L 551.142123 348.236434 
L 554.536457 348.975924 
L 557.930791 349.709301 
L 561.325125 350.432495 
L 564.719459 351.141748 
L 568.113793 351.833747 
L 571.508128 352.505712 
L 574.902462 353.155421 
L 578.296796 353.781209 
L 581.69113 354.38193 
L 585.085464 354.956911 
L 588.479798 355.505894 
L 591.874132 356.028967 
L 595.268466 356.526507 
L 598.6628 356.99912 
L 602.057134 357.447588 
L 605.451468 357.872823 
L 608.845803 358.275825 
L 612.240137 358.657654 
L 615.634471 359.019396 
L 619.028805 359.362145 
L 622.423139 359.686986 
L 625.817473 359.994978 
L 629.211807 360.28715 
L 632.606141 360.564488 
L 636.000475 360.827935 
L 639.394809 361.078385 
L 642.789143 361.316685 
L 646.183478 361.543631 
L 649.577812 361.759969 
L 652.972146 361.966402 
L 656.36648 362.163582 
L 659.760814 362.352121 
L 663.155148 362.532589 
L 663.155148 44.618906 
L 663.155148 44.618906 
L 659.760814 44.618906 
L 656.36648 44.618906 
L 652.972146 44.618906 
L 649.577812 44.618906 
L 646.183478 44.618906 
L 642.789143 44.618906 
L 639.394809 44.618906 
L 636.000475 44.618906 
L 632.606141 44.618906 
L 629.211807 44.618906 
L 625.817473 44.618906 
L 622.423139 44.618906 
L 619.028805 44.618906 
L 615.634471 44.618906 
L 612.240137 44.618906 
L 608.845803 44.618906 
L 605.451468 44.618906 
L 602.057134 44.618906 
L 598.6628 44.618906 
L 595.268466 44.618906 
L 591.874132 44.618906 
L 588.479798 44.618906 
L 585.085464 44.618906 
L 581.69113 44.618906 
L 578.296796 44.618906 
L 574.902462 44.618906 
L 571.508128 44.618906 
L 568.113793 44.618906 
L 564.719459 44.618906 
L 561.325125 44.618906 
L 557.930791 44.618906 
L 554.536457 44.618906 
L 551.142123 44.618906 
L 547.747789 44.618906 
L 544.353455 44.618906 
L 540.959121 44.618906 
L 537.564787 44.618906 
L 534.170453 44.618906 
L 530.776119 44.618906 
L 527.381784 44.618906 
L 523.98745 44.618906 
L 520.593116 44.618906 
L 517.198782 44.618906 
L 513.804448 44.618906 
L 510.410114 44.618906 
L 507.01578 44.618906 
L 503.621446 44.618906 
L 500.227112 44.618906 
L 496.832778 44.618906 
L 493.438444 44.618906 
L 490.044109 44.618906 
L 486.649775 44.618906 
L 483.255441 44.618906 
L 479.861107 44.618906 
L 476.466773 44.618906 
L 473.072439 44.618906 
L 469.678105 44.618906 
L 466.283771 44.618906 
L 462.889437 44.618906 
L 459.495103 44.618906 
L 456.100769 44.618906 
L 452.706435 44.618906 
L 449.3121 44.618906 
L 445.917766 44.618906 
L 442.523432 44.618906 
L 439.129098 44.618906 
L 435.734764 44.618906 
L 432.34043 44.618906 
L 428.946096 44.618906 
L 425.551762 44.618906 
L 422.157428 44.618906 
L 418.763094 44.618906 
L 415.36876 44.618906 
L 411.974425 44.618906 
L 408.580091 44.618906 
L 405.185757 44.618906 
L 401.791423 44.618906 
L 398.397089 44.618906 
L 395.002755 44.618906 
L 391.608421 44.618906 
L 388.214087 44.618906 
L 384.819753 44.618906 
L 381.425419 44.618906 
L 378.031085 44.618906 
L 374.636751 44.618906 
L 371.242416 44.618906 
L 367.848082 44.618906 
L 364.453748 44.618906 
L 361.059414 44.618906 
L 357.66508 44.618906 
L 354.270746 44.618906 
L 350.876412 44.618906 
L 347.482078 44.618906 
L 344.087744 44.618906 
L 340.69341 44.618906 
L 337.299076 44.618906 
L 333.904741 44.618906 
L 330.510407 44.618906 
L 327.116073 44.618906 
L 323.721739 44.618906 
L 320.327405 44.618906 
L 316.933071 44.618906 
L 313.538737 44.618906 
L 310.144403 44.618906 
L 306.750069 44.618906 
L 303.355735 44.618906 
L 299.961401 44.618906 
L 296.567067 44.618906 
L 293.172732 44.618906 
L 289.778398 44.618906 
L 286.384064 44.618906 
L 282.98973 44.618906 
L 279.595396 44.618906 
L 276.201062 44.618906 
L 272.806728 44.618906 
L 269.412394 44.618906 
L 266.01806 44.618906 
L 262.623726 44.618906 
L 259.229392 44.618906 
L 255.835057 44.618906 
L 252.440723 44.618906 
L 249.046389 44.618906 
L 245.652055 44.618906 
L 242.257721 44.618906 
L 238.863387 44.618906 
L 235.469053 44.618906 
L 232.074719 44.618906 
L 228.680385 44.618906 
L 225.286051 44.618906 
L 221.891717 44.618906 
L 218.497382 44.618906 
L 215.103048 44.618906 
L 211.708714 44.618906 
L 208.31438 44.618906 
L 204.920046 44.618906 
L 201.525712 44.618906 
L 198.131378 44.618906 
L 194.737044 44.618906 
L 191.34271 44.618906 
L 187.948376 44.618906 
L 184.554042 44.618906 
L 181.159708 44.618906 
L 177.765373 44.618906 
L 174.371039 44.618906 
L 170.976705 44.618906 
L 167.582371 44.618906 
L 164.188037 44.618906 
L 160.793703 44.618906 
L 157.399369 44.618906 
L 154.005035 44.618906 
L 150.610701 44.618906 
L 147.216367 44.618906 
L 143.822033 44.618906 
L 140.427698 44.618906 
L 137.033364 44.618906 
L 133.63903 44.618906 
L 130.244696 44.618906 
L 126.850362 44.618906 
L 123.456028 44.618906 
L 120.061694 44.618906 
L 116.66736 44.618906 
L 113.273026 44.618906 
L 109.878692 44.618906 
L 106.484358 44.618906 
L 103.090024 44.618906 
L 99.695689 44.618906 
L 96.301355 44.618906 
L 92.907021 44.618906 
L 89.512687 44.618906 
L 86.118353 44.618906 
L 82.724019 44.618906 
L 79.329685 44.618906 
L 75.935351 44.618906 
L 72.541017 44.618906 
L 69.146683 44.618906 
L 65.752349 44.618906 
L 62.358014 44.618906 
L 58.96368 44.618906 
L 55.569346 44.618906 
L 52.175012 44.618906 
L 48.780678 44.618906 
L 45.386344 44.618906 
L 41.99201 44.618906 
L 38.597676 44.618906 
L 35.203342 44.618906 
L 31.809008 44.618906 
L 28.414674 44.618906 
L 25.02034 44.618906 
L 21.626005 44.618906 
L 18.231671 44.618906 
L 14.837337 44.618906 
L 11.443003 44.618906 
L 8.048669 44.618906 
L 4.654335 44.618906 
L 1.260001 44.618906 
L -2.134333 44.618906 
L -5.528667 44.618906 
L -8.923001 44.618906 
L -12.317335 44.618906 
z
" clip-path="url(#p79f9badb40)" style="fill: #008fd5; fill-opacity: 0.9; stroke: #ffffff; stroke-width: 3"/>
   </g>
   <g id="legend_1">
    <g id="patch_3">
     <path d="M 215.157656 26.337422 
L 248.157656 26.337422 
L 248.157656 14.787422 
L 215.157656 14.787422 
z
" style="fill: #008fd5; fill-opacity: 0.9; stroke: #ffffff; stroke-width: 3; stroke-linejoin: miter"/>
    </g>
    <g id="text_16">
     <!-- retain -->
     <g style="fill: #262626" transform="translate(261.357656 26.337422)scale(0.165 -0.165)">
      <use xlink:href="#DejaVuSans-72"/>
      <use xlink:href="#DejaVuSans-65" x="38.863281"/>
      <use xlink:href="#DejaVuSans-74" x="100.386719"/>
      <use xlink:href="#DejaVuSans-61" x="139.595703"/>
      <use xlink:href="#DejaVuSans-69" x="200.875"/>
      <use xlink:href="#DejaVuSans-6e" x="228.658203"/>
     </g>
    </g>
    <g id="patch_4">
     <path d="M 342.542812 26.337422 
L 375.542812 26.337422 
L 375.542812 14.787422 
L 342.542812 14.787422 
z
" style="fill: #fc4f30; fill-opacity: 0.9; stroke: #ffffff; stroke-width: 3; stroke-linejoin: miter"/>
    </g>
    <g id="text_17">
     <!-- churn -->
     <g style="fill: #262626" transform="translate(388.742812 26.337422)scale(0.165 -0.165)">
      <defs>
       <path id="DejaVuSans-63" d="M 3122 3366 
L 3122 2828 
Q 2878 2963 2633 3030 
Q 2388 3097 2138 3097 
Q 1578 3097 1268 2742 
Q 959 2388 959 1747 
Q 959 1106 1268 751 
Q 1578 397 2138 397 
Q 2388 397 2633 464 
Q 2878 531 3122 666 
L 3122 134 
Q 2881 22 2623 -34 
Q 2366 -91 2075 -91 
Q 1284 -91 818 406 
Q 353 903 353 1747 
Q 353 2603 823 3093 
Q 1294 3584 2113 3584 
Q 2378 3584 2631 3529 
Q 2884 3475 3122 3366 
z
" transform="scale(0.015625)"/>
       <path id="DejaVuSans-68" d="M 3513 2113 
L 3513 0 
L 2938 0 
L 2938 2094 
Q 2938 2591 2744 2837 
Q 2550 3084 2163 3084 
Q 1697 3084 1428 2787 
Q 1159 2491 1159 1978 
L 1159 0 
L 581 0 
L 581 4863 
L 1159 4863 
L 1159 2956 
Q 1366 3272 1645 3428 
Q 1925 3584 2291 3584 
Q 2894 3584 3203 3211 
Q 3513 2838 3513 2113 
z
" transform="scale(0.015625)"/>
      </defs>
      <use xlink:href="#DejaVuSans-63"/>
      <use xlink:href="#DejaVuSans-68" x="54.980469"/>
      <use xlink:href="#DejaVuSans-75" x="118.359375"/>
      <use xlink:href="#DejaVuSans-72" x="181.738281"/>
      <use xlink:href="#DejaVuSans-6e" x="221.101562"/>
     </g>
    </g>
   </g>
  </g>
 </g>
 <defs>
  <clipPath id="p79f9badb40">
   <rect x="74.858906" y="44.618906" width="501.12" height="326.16"/>
  </clipPath>
 </defs>
</svg>
