<?xml version="1.0" encoding="utf-8" standalone="no"?>
<!DOCTYPE svg PUBLIC "-//W3C//DTD SVG 1.1//EN"
  "http://www.w3.org/Graphics/SVG/1.1/DTD/svg11.dtd">
<svg xmlns:xlink="http://www.w3.org/1999/xlink" width="583.178906pt" height="424.868438pt" viewBox="0 0 583.178906 424.868438" xmlns="http://www.w3.org/2000/svg" version="1.1">
 <metadata>
  <rdf:RDF xmlns:dc="http://purl.org/dc/elements/1.1/" xmlns:cc="http://creativecommons.org/ns#" xmlns:rdf="http://www.w3.org/1999/02/22-rdf-syntax-ns#">
   <cc:Work>
    <dc:type rdf:resource="http://purl.org/dc/dcmitype/StillImage"/>
    <dc:date>2022-04-28T06:41:32.326215</dc:date>
    <dc:format>image/svg+xml</dc:format>
    <dc:creator>
     <cc:Agent>
      <dc:title>Matplotlib v3.5.1, https://matplotlib.org/</dc:title>
     </cc:Agent>
    </dc:creator>
   </cc:Work>
  </rdf:RDF>
 </metadata>
 <defs>
  <style type="text/css">*{stroke-linejoin: round; stroke-linecap: butt}</style>
 </defs>
 <g id="figure_1">
  <g id="patch_1">
   <path d="M 0 424.868438 
L 583.178906 424.868438 
L 583.178906 0 
L 0 0 
z
" style="fill: #ffffff"/>
  </g>
  <g id="axes_1">
   <g id="patch_2">
    <path d="M 74.858906 370.778906 
L 575.978906 370.778906 
L 575.978906 44.618906 
L 74.858906 44.618906 
z
" style="fill: #ffffff"/>
   </g>
   <g id="matplotlib.axis_1">
    <g id="xtick_1">
     <g id="text_1">
      <!-- 20 -->
      <g style="fill: #262626" transform="translate(73.086751 392.816328)scale(0.165 -0.165)">
       <defs>
        <path id="DejaVuSans-32" d="M 1228 531 
L 3431 531 
L 3431 0 
L 469 0 
L 469 531 
Q 828 903 1448 1529 
Q 2069 2156 2228 2338 
Q 2531 2678 2651 2914 
Q 2772 3150 2772 3378 
Q 2772 3750 2511 3984 
Q 2250 4219 1831 4219 
Q 1534 4219 1204 4116 
Q 875 4013 500 3803 
L 500 4441 
Q 881 4594 1212 4672 
Q 1544 4750 1819 4750 
Q 2544 4750 2975 4387 
Q 3406 4025 3406 3419 
Q 3406 3131 3298 2873 
Q 3191 2616 2906 2266 
Q 2828 2175 2409 1742 
Q 1991 1309 1228 531 
z
" transform="scale(0.015625)"/>
        <path id="DejaVuSans-30" d="M 2034 4250 
Q 1547 4250 1301 3770 
Q 1056 3291 1056 2328 
Q 1056 1369 1301 889 
Q 1547 409 2034 409 
Q 2525 409 2770 889 
Q 3016 1369 3016 2328 
Q 3016 3291 2770 3770 
Q 2525 4250 2034 4250 
z
M 2034 4750 
Q 2819 4750 3233 4129 
Q 3647 3509 3647 2328 
Q 3647 1150 3233 529 
Q 2819 -91 2034 -91 
Q 1250 -91 836 529 
Q 422 1150 422 2328 
Q 422 3509 836 4129 
Q 1250 4750 2034 4750 
z
" transform="scale(0.015625)"/>
       </defs>
       <use xlink:href="#DejaVuSans-32"/>
       <use xlink:href="#DejaVuSans-30" x="63.623047"/>
      </g>
     </g>
    </g>
    <g id="xtick_2">
     <g id="text_2">
      <!-- 30 -->
      <g style="fill: #262626" transform="translate(122.949438 392.816328)scale(0.165 -0.165)">
       <defs>
        <path id="DejaVuSans-33" d="M 2597 2516 
Q 3050 2419 3304 2112 
Q 3559 1806 3559 1356 
Q 3559 666 3084 287 
Q 2609 -91 1734 -91 
Q 1441 -91 1130 -33 
Q 819 25 488 141 
L 488 750 
Q 750 597 1062 519 
Q 1375 441 1716 441 
Q 2309 441 2620 675 
Q 2931 909 2931 1356 
Q 2931 1769 2642 2001 
Q 2353 2234 1838 2234 
L 1294 2234 
L 1294 2753 
L 1863 2753 
Q 2328 2753 2575 2939 
Q 2822 3125 2822 3475 
Q 2822 3834 2567 4026 
Q 2313 4219 1838 4219 
Q 1578 4219 1281 4162 
Q 984 4106 628 3988 
L 628 4550 
Q 988 4650 1302 4700 
Q 1616 4750 1894 4750 
Q 2613 4750 3031 4423 
Q 3450 4097 3450 3541 
Q 3450 3153 3228 2886 
Q 3006 2619 2597 2516 
z
" transform="scale(0.015625)"/>
       </defs>
       <use xlink:href="#DejaVuSans-33"/>
       <use xlink:href="#DejaVuSans-30" x="63.623047"/>
      </g>
     </g>
    </g>
    <g id="xtick_3">
     <g id="text_3">
      <!-- 40 -->
      <g style="fill: #262626" transform="translate(172.812125 392.816328)scale(0.165 -0.165)">
       <defs>
        <path id="DejaVuSans-34" d="M 2419 4116 
L 825 1625 
L 2419 1625 
L 2419 4116 
z
M 2253 4666 
L 3047 4666 
L 3047 1625 
L 3713 1625 
L 3713 1100 
L 3047 1100 
L 3047 0 
L 2419 0 
L 2419 1100 
L 313 1100 
L 313 1709 
L 2253 4666 
z
" transform="scale(0.015625)"/>
       </defs>
       <use xlink:href="#DejaVuSans-34"/>
       <use xlink:href="#DejaVuSans-30" x="63.623047"/>
      </g>
     </g>
    </g>
    <g id="xtick_4">
     <g id="text_4">
      <!-- 50 -->
      <g style="fill: #262626" transform="translate(222.674811 392.816328)scale(0.165 -0.165)">
       <defs>
        <path id="DejaVuSans-35" d="M 691 4666 
L 3169 4666 
L 3169 4134 
L 1269 4134 
L 1269 2991 
Q 1406 3038 1543 3061 
Q 1681 3084 1819 3084 
Q 2600 3084 3056 2656 
Q 3513 2228 3513 1497 
Q 3513 744 3044 326 
Q 2575 -91 1722 -91 
Q 1428 -91 1123 -41 
Q 819 9 494 109 
L 494 744 
Q 775 591 1075 516 
Q 1375 441 1709 441 
Q 2250 441 2565 725 
Q 2881 1009 2881 1497 
Q 2881 1984 2565 2268 
Q 2250 2553 1709 2553 
Q 1456 2553 1204 2497 
Q 953 2441 691 2322 
L 691 4666 
z
" transform="scale(0.015625)"/>
       </defs>
       <use xlink:href="#DejaVuSans-35"/>
       <use xlink:href="#DejaVuSans-30" x="63.623047"/>
      </g>
     </g>
    </g>
    <g id="xtick_5">
     <g id="text_5">
      <!-- 60 -->
      <g style="fill: #262626" transform="translate(272.537498 392.816328)scale(0.165 -0.165)">
       <defs>
        <path id="DejaVuSans-36" d="M 2113 2584 
Q 1688 2584 1439 2293 
Q 1191 2003 1191 1497 
Q 1191 994 1439 701 
Q 1688 409 2113 409 
Q 2538 409 2786 701 
Q 3034 994 3034 1497 
Q 3034 2003 2786 2293 
Q 2538 2584 2113 2584 
z
M 3366 4563 
L 3366 3988 
Q 3128 4100 2886 4159 
Q 2644 4219 2406 4219 
Q 1781 4219 1451 3797 
Q 1122 3375 1075 2522 
Q 1259 2794 1537 2939 
Q 1816 3084 2150 3084 
Q 2853 3084 3261 2657 
Q 3669 2231 3669 1497 
Q 3669 778 3244 343 
Q 2819 -91 2113 -91 
Q 1303 -91 875 529 
Q 447 1150 447 2328 
Q 447 3434 972 4092 
Q 1497 4750 2381 4750 
Q 2619 4750 2861 4703 
Q 3103 4656 3366 4563 
z
" transform="scale(0.015625)"/>
       </defs>
       <use xlink:href="#DejaVuSans-36"/>
       <use xlink:href="#DejaVuSans-30" x="63.623047"/>
      </g>
     </g>
    </g>
    <g id="xtick_6">
     <g id="text_6">
      <!-- 70 -->
      <g style="fill: #262626" transform="translate(322.400184 392.816328)scale(0.165 -0.165)">
       <defs>
        <path id="DejaVuSans-37" d="M 525 4666 
L 3525 4666 
L 3525 4397 
L 1831 0 
L 1172 0 
L 2766 4134 
L 525 4134 
L 525 4666 
z
" transform="scale(0.015625)"/>
       </defs>
       <use xlink:href="#DejaVuSans-37"/>
       <use xlink:href="#DejaVuSans-30" x="63.623047"/>
      </g>
     </g>
    </g>
    <g id="xtick_7">
     <g id="text_7">
      <!-- 80 -->
      <g style="fill: #262626" transform="translate(372.262871 392.816328)scale(0.165 -0.165)">
       <defs>
        <path id="DejaVuSans-38" d="M 2034 2216 
Q 1584 2216 1326 1975 
Q 1069 1734 1069 1313 
Q 1069 891 1326 650 
Q 1584 409 2034 409 
Q 2484 409 2743 651 
Q 3003 894 3003 1313 
Q 3003 1734 2745 1975 
Q 2488 2216 2034 2216 
z
M 1403 2484 
Q 997 2584 770 2862 
Q 544 3141 544 3541 
Q 544 4100 942 4425 
Q 1341 4750 2034 4750 
Q 2731 4750 3128 4425 
Q 3525 4100 3525 3541 
Q 3525 3141 3298 2862 
Q 3072 2584 2669 2484 
Q 3125 2378 3379 2068 
Q 3634 1759 3634 1313 
Q 3634 634 3220 271 
Q 2806 -91 2034 -91 
Q 1263 -91 848 271 
Q 434 634 434 1313 
Q 434 1759 690 2068 
Q 947 2378 1403 2484 
z
M 1172 3481 
Q 1172 3119 1398 2916 
Q 1625 2713 2034 2713 
Q 2441 2713 2670 2916 
Q 2900 3119 2900 3481 
Q 2900 3844 2670 4047 
Q 2441 4250 2034 4250 
Q 1625 4250 1398 4047 
Q 1172 3844 1172 3481 
z
" transform="scale(0.015625)"/>
       </defs>
       <use xlink:href="#DejaVuSans-38"/>
       <use xlink:href="#DejaVuSans-30" x="63.623047"/>
      </g>
     </g>
    </g>
    <g id="xtick_8">
     <g id="text_8">
      <!-- 90 -->
      <g style="fill: #262626" transform="translate(422.125557 392.816328)scale(0.165 -0.165)">
       <defs>
        <path id="DejaVuSans-39" d="M 703 97 
L 703 672 
Q 941 559 1184 500 
Q 1428 441 1663 441 
Q 2288 441 2617 861 
Q 2947 1281 2994 2138 
Q 2813 1869 2534 1725 
Q 2256 1581 1919 1581 
Q 1219 1581 811 2004 
Q 403 2428 403 3163 
Q 403 3881 828 4315 
Q 1253 4750 1959 4750 
Q 2769 4750 3195 4129 
Q 3622 3509 3622 2328 
Q 3622 1225 3098 567 
Q 2575 -91 1691 -91 
Q 1453 -91 1209 -44 
Q 966 3 703 97 
z
M 1959 2075 
Q 2384 2075 2632 2365 
Q 2881 2656 2881 3163 
Q 2881 3666 2632 3958 
Q 2384 4250 1959 4250 
Q 1534 4250 1286 3958 
Q 1038 3666 1038 3163 
Q 1038 2656 1286 2365 
Q 1534 2075 1959 2075 
z
" transform="scale(0.015625)"/>
       </defs>
       <use xlink:href="#DejaVuSans-39"/>
       <use xlink:href="#DejaVuSans-30" x="63.623047"/>
      </g>
     </g>
    </g>
    <g id="xtick_9">
     <g id="text_9">
      <!-- 100 -->
      <g style="fill: #262626" transform="translate(466.739181 392.816328)scale(0.165 -0.165)">
       <defs>
        <path id="DejaVuSans-31" d="M 794 531 
L 1825 531 
L 1825 4091 
L 703 3866 
L 703 4441 
L 1819 4666 
L 2450 4666 
L 2450 531 
L 3481 531 
L 3481 0 
L 794 0 
L 794 531 
z
" transform="scale(0.015625)"/>
       </defs>
       <use xlink:href="#DejaVuSans-31"/>
       <use xlink:href="#DejaVuSans-30" x="63.623047"/>
       <use xlink:href="#DejaVuSans-30" x="127.246094"/>
      </g>
     </g>
    </g>
    <g id="xtick_10">
     <g id="text_10">
      <!-- 110 -->
      <g style="fill: #262626" transform="translate(516.601868 392.816328)scale(0.165 -0.165)">
       <use xlink:href="#DejaVuSans-31"/>
       <use xlink:href="#DejaVuSans-31" x="63.623047"/>
       <use xlink:href="#DejaVuSans-30" x="127.246094"/>
      </g>
     </g>
    </g>
    <g id="text_11">
     <!-- monthly charges -->
     <g style="fill: #262626" transform="translate(249.872344 413.925)scale(0.18 -0.18)">
      <defs>
       <path id="DejaVuSans-6d" d="M 3328 2828 
Q 3544 3216 3844 3400 
Q 4144 3584 4550 3584 
Q 5097 3584 5394 3201 
Q 5691 2819 5691 2113 
L 5691 0 
L 5113 0 
L 5113 2094 
Q 5113 2597 4934 2840 
Q 4756 3084 4391 3084 
Q 3944 3084 3684 2787 
Q 3425 2491 3425 1978 
L 3425 0 
L 2847 0 
L 2847 2094 
Q 2847 2600 2669 2842 
Q 2491 3084 2119 3084 
Q 1678 3084 1418 2786 
Q 1159 2488 1159 1978 
L 1159 0 
L 581 0 
L 581 3500 
L 1159 3500 
L 1159 2956 
Q 1356 3278 1631 3431 
Q 1906 3584 2284 3584 
Q 2666 3584 2933 3390 
Q 3200 3197 3328 2828 
z
" transform="scale(0.015625)"/>
       <path id="DejaVuSans-6f" d="M 1959 3097 
Q 1497 3097 1228 2736 
Q 959 2375 959 1747 
Q 959 1119 1226 758 
Q 1494 397 1959 397 
Q 2419 397 2687 759 
Q 2956 1122 2956 1747 
Q 2956 2369 2687 2733 
Q 2419 3097 1959 3097 
z
M 1959 3584 
Q 2709 3584 3137 3096 
Q 3566 2609 3566 1747 
Q 3566 888 3137 398 
Q 2709 -91 1959 -91 
Q 1206 -91 779 398 
Q 353 888 353 1747 
Q 353 2609 779 3096 
Q 1206 3584 1959 3584 
z
" transform="scale(0.015625)"/>
       <path id="DejaVuSans-6e" d="M 3513 2113 
L 3513 0 
L 2938 0 
L 2938 2094 
Q 2938 2591 2744 2837 
Q 2550 3084 2163 3084 
Q 1697 3084 1428 2787 
Q 1159 2491 1159 1978 
L 1159 0 
L 581 0 
L 581 3500 
L 1159 3500 
L 1159 2956 
Q 1366 3272 1645 3428 
Q 1925 3584 2291 3584 
Q 2894 3584 3203 3211 
Q 3513 2838 3513 2113 
z
" transform="scale(0.015625)"/>
       <path id="DejaVuSans-74" d="M 1172 4494 
L 1172 3500 
L 2356 3500 
L 2356 3053 
L 1172 3053 
L 1172 1153 
Q 1172 725 1289 603 
Q 1406 481 1766 481 
L 2356 481 
L 2356 0 
L 1766 0 
Q 1100 0 847 248 
Q 594 497 594 1153 
L 594 3053 
L 172 3053 
L 172 3500 
L 594 3500 
L 594 4494 
L 1172 4494 
z
" transform="scale(0.015625)"/>
       <path id="DejaVuSans-68" d="M 3513 2113 
L 3513 0 
L 2938 0 
L 2938 2094 
Q 2938 2591 2744 2837 
Q 2550 3084 2163 3084 
Q 1697 3084 1428 2787 
Q 1159 2491 1159 1978 
L 1159 0 
L 581 0 
L 581 4863 
L 1159 4863 
L 1159 2956 
Q 1366 3272 1645 3428 
Q 1925 3584 2291 3584 
Q 2894 3584 3203 3211 
Q 3513 2838 3513 2113 
z
" transform="scale(0.015625)"/>
       <path id="DejaVuSans-6c" d="M 603 4863 
L 1178 4863 
L 1178 0 
L 603 0 
L 603 4863 
z
" transform="scale(0.015625)"/>
       <path id="DejaVuSans-79" d="M 2059 -325 
Q 1816 -950 1584 -1140 
Q 1353 -1331 966 -1331 
L 506 -1331 
L 506 -850 
L 844 -850 
Q 1081 -850 1212 -737 
Q 1344 -625 1503 -206 
L 1606 56 
L 191 3500 
L 800 3500 
L 1894 763 
L 2988 3500 
L 3597 3500 
L 2059 -325 
z
" transform="scale(0.015625)"/>
       <path id="DejaVuSans-20" transform="scale(0.015625)"/>
       <path id="DejaVuSans-63" d="M 3122 3366 
L 3122 2828 
Q 2878 2963 2633 3030 
Q 2388 3097 2138 3097 
Q 1578 3097 1268 2742 
Q 959 2388 959 1747 
Q 959 1106 1268 751 
Q 1578 397 2138 397 
Q 2388 397 2633 464 
Q 2878 531 3122 666 
L 3122 134 
Q 2881 22 2623 -34 
Q 2366 -91 2075 -91 
Q 1284 -91 818 406 
Q 353 903 353 1747 
Q 353 2603 823 3093 
Q 1294 3584 2113 3584 
Q 2378 3584 2631 3529 
Q 2884 3475 3122 3366 
z
" transform="scale(0.015625)"/>
       <path id="DejaVuSans-61" d="M 2194 1759 
Q 1497 1759 1228 1600 
Q 959 1441 959 1056 
Q 959 750 1161 570 
Q 1363 391 1709 391 
Q 2188 391 2477 730 
Q 2766 1069 2766 1631 
L 2766 1759 
L 2194 1759 
z
M 3341 1997 
L 3341 0 
L 2766 0 
L 2766 531 
Q 2569 213 2275 61 
Q 1981 -91 1556 -91 
Q 1019 -91 701 211 
Q 384 513 384 1019 
Q 384 1609 779 1909 
Q 1175 2209 1959 2209 
L 2766 2209 
L 2766 2266 
Q 2766 2663 2505 2880 
Q 2244 3097 1772 3097 
Q 1472 3097 1187 3025 
Q 903 2953 641 2809 
L 641 3341 
Q 956 3463 1253 3523 
Q 1550 3584 1831 3584 
Q 2591 3584 2966 3190 
Q 3341 2797 3341 1997 
z
" transform="scale(0.015625)"/>
       <path id="DejaVuSans-72" d="M 2631 2963 
Q 2534 3019 2420 3045 
Q 2306 3072 2169 3072 
Q 1681 3072 1420 2755 
Q 1159 2438 1159 1844 
L 1159 0 
L 581 0 
L 581 3500 
L 1159 3500 
L 1159 2956 
Q 1341 3275 1631 3429 
Q 1922 3584 2338 3584 
Q 2397 3584 2469 3576 
Q 2541 3569 2628 3553 
L 2631 2963 
z
" transform="scale(0.015625)"/>
       <path id="DejaVuSans-67" d="M 2906 1791 
Q 2906 2416 2648 2759 
Q 2391 3103 1925 3103 
Q 1463 3103 1205 2759 
Q 947 2416 947 1791 
Q 947 1169 1205 825 
Q 1463 481 1925 481 
Q 2391 481 2648 825 
Q 2906 1169 2906 1791 
z
M 3481 434 
Q 3481 -459 3084 -895 
Q 2688 -1331 1869 -1331 
Q 1566 -1331 1297 -1286 
Q 1028 -1241 775 -1147 
L 775 -588 
Q 1028 -725 1275 -790 
Q 1522 -856 1778 -856 
Q 2344 -856 2625 -561 
Q 2906 -266 2906 331 
L 2906 616 
Q 2728 306 2450 153 
Q 2172 0 1784 0 
Q 1141 0 747 490 
Q 353 981 353 1791 
Q 353 2603 747 3093 
Q 1141 3584 1784 3584 
Q 2172 3584 2450 3431 
Q 2728 3278 2906 2969 
L 2906 3500 
L 3481 3500 
L 3481 434 
z
" transform="scale(0.015625)"/>
       <path id="DejaVuSans-65" d="M 3597 1894 
L 3597 1613 
L 953 1613 
Q 991 1019 1311 708 
Q 1631 397 2203 397 
Q 2534 397 2845 478 
Q 3156 559 3463 722 
L 3463 178 
Q 3153 47 2828 -22 
Q 2503 -91 2169 -91 
Q 1331 -91 842 396 
Q 353 884 353 1716 
Q 353 2575 817 3079 
Q 1281 3584 2069 3584 
Q 2775 3584 3186 3129 
Q 3597 2675 3597 1894 
z
M 3022 2063 
Q 3016 2534 2758 2815 
Q 2500 3097 2075 3097 
Q 1594 3097 1305 2825 
Q 1016 2553 972 2059 
L 3022 2063 
z
" transform="scale(0.015625)"/>
       <path id="DejaVuSans-73" d="M 2834 3397 
L 2834 2853 
Q 2591 2978 2328 3040 
Q 2066 3103 1784 3103 
Q 1356 3103 1142 2972 
Q 928 2841 928 2578 
Q 928 2378 1081 2264 
Q 1234 2150 1697 2047 
L 1894 2003 
Q 2506 1872 2764 1633 
Q 3022 1394 3022 966 
Q 3022 478 2636 193 
Q 2250 -91 1575 -91 
Q 1294 -91 989 -36 
Q 684 19 347 128 
L 347 722 
Q 666 556 975 473 
Q 1284 391 1588 391 
Q 1994 391 2212 530 
Q 2431 669 2431 922 
Q 2431 1156 2273 1281 
Q 2116 1406 1581 1522 
L 1381 1569 
Q 847 1681 609 1914 
Q 372 2147 372 2553 
Q 372 3047 722 3315 
Q 1072 3584 1716 3584 
Q 2034 3584 2315 3537 
Q 2597 3491 2834 3397 
z
" transform="scale(0.015625)"/>
      </defs>
      <use xlink:href="#DejaVuSans-6d"/>
      <use xlink:href="#DejaVuSans-6f" x="97.412109"/>
      <use xlink:href="#DejaVuSans-6e" x="158.59375"/>
      <use xlink:href="#DejaVuSans-74" x="221.972656"/>
      <use xlink:href="#DejaVuSans-68" x="261.181641"/>
      <use xlink:href="#DejaVuSans-6c" x="324.560547"/>
      <use xlink:href="#DejaVuSans-79" x="352.34375"/>
      <use xlink:href="#DejaVuSans-20" x="411.523438"/>
      <use xlink:href="#DejaVuSans-63" x="443.310547"/>
      <use xlink:href="#DejaVuSans-68" x="498.291016"/>
      <use xlink:href="#DejaVuSans-61" x="561.669922"/>
      <use xlink:href="#DejaVuSans-72" x="622.949219"/>
      <use xlink:href="#DejaVuSans-67" x="662.3125"/>
      <use xlink:href="#DejaVuSans-65" x="725.789062"/>
      <use xlink:href="#DejaVuSans-73" x="787.3125"/>
     </g>
    </g>
   </g>
   <g id="matplotlib.axis_2">
    <g id="ytick_1">
     <g id="text_12">
      <!-- 0.00 -->
      <g style="fill: #262626" transform="translate(28.620625 377.047617)scale(0.165 -0.165)">
       <defs>
        <path id="DejaVuSans-2e" d="M 684 794 
L 1344 794 
L 1344 0 
L 684 0 
L 684 794 
z
" transform="scale(0.015625)"/>
       </defs>
       <use xlink:href="#DejaVuSans-30"/>
       <use xlink:href="#DejaVuSans-2e" x="63.623047"/>
       <use xlink:href="#DejaVuSans-30" x="95.410156"/>
       <use xlink:href="#DejaVuSans-30" x="159.033203"/>
      </g>
     </g>
    </g>
    <g id="ytick_2">
     <g id="text_13">
      <!-- 0.25 -->
      <g style="fill: #262626" transform="translate(28.620625 295.507617)scale(0.165 -0.165)">
       <use xlink:href="#DejaVuSans-30"/>
       <use xlink:href="#DejaVuSans-2e" x="63.623047"/>
       <use xlink:href="#DejaVuSans-32" x="95.410156"/>
       <use xlink:href="#DejaVuSans-35" x="159.033203"/>
      </g>
     </g>
    </g>
    <g id="ytick_3">
     <g id="text_14">
      <!-- 0.50 -->
      <g style="fill: #262626" transform="translate(28.620625 213.967617)scale(0.165 -0.165)">
       <use xlink:href="#DejaVuSans-30"/>
       <use xlink:href="#DejaVuSans-2e" x="63.623047"/>
       <use xlink:href="#DejaVuSans-35" x="95.410156"/>
       <use xlink:href="#DejaVuSans-30" x="159.033203"/>
      </g>
     </g>
    </g>
    <g id="ytick_4">
     <g id="text_15">
      <!-- 0.75 -->
      <g style="fill: #262626" transform="translate(28.620625 132.427617)scale(0.165 -0.165)">
       <use xlink:href="#DejaVuSans-30"/>
       <use xlink:href="#DejaVuSans-2e" x="63.623047"/>
       <use xlink:href="#DejaVuSans-37" x="95.410156"/>
       <use xlink:href="#DejaVuSans-35" x="159.033203"/>
      </g>
     </g>
    </g>
    <g id="ytick_5">
     <g id="text_16">
      <!-- 1.00 -->
      <g style="fill: #262626" transform="translate(28.620625 50.887617)scale(0.165 -0.165)">
       <use xlink:href="#DejaVuSans-31"/>
       <use xlink:href="#DejaVuSans-2e" x="63.623047"/>
       <use xlink:href="#DejaVuSans-30" x="95.410156"/>
       <use xlink:href="#DejaVuSans-30" x="159.033203"/>
      </g>
     </g>
    </g>
    <g id="text_17">
     <!-- probability -->
     <g style="fill: #262626" transform="translate(20.877188 255.715313)rotate(-90)scale(0.18 -0.18)">
      <defs>
       <path id="DejaVuSans-70" d="M 1159 525 
L 1159 -1331 
L 581 -1331 
L 581 3500 
L 1159 3500 
L 1159 2969 
Q 1341 3281 1617 3432 
Q 1894 3584 2278 3584 
Q 2916 3584 3314 3078 
Q 3713 2572 3713 1747 
Q 3713 922 3314 415 
Q 2916 -91 2278 -91 
Q 1894 -91 1617 61 
Q 1341 213 1159 525 
z
M 3116 1747 
Q 3116 2381 2855 2742 
Q 2594 3103 2138 3103 
Q 1681 3103 1420 2742 
Q 1159 2381 1159 1747 
Q 1159 1113 1420 752 
Q 1681 391 2138 391 
Q 2594 391 2855 752 
Q 3116 1113 3116 1747 
z
" transform="scale(0.015625)"/>
       <path id="DejaVuSans-62" d="M 3116 1747 
Q 3116 2381 2855 2742 
Q 2594 3103 2138 3103 
Q 1681 3103 1420 2742 
Q 1159 2381 1159 1747 
Q 1159 1113 1420 752 
Q 1681 391 2138 391 
Q 2594 391 2855 752 
Q 3116 1113 3116 1747 
z
M 1159 2969 
Q 1341 3281 1617 3432 
Q 1894 3584 2278 3584 
Q 2916 3584 3314 3078 
Q 3713 2572 3713 1747 
Q 3713 922 3314 415 
Q 2916 -91 2278 -91 
Q 1894 -91 1617 61 
Q 1341 213 1159 525 
L 1159 0 
L 581 0 
L 581 4863 
L 1159 4863 
L 1159 2969 
z
" transform="scale(0.015625)"/>
       <path id="DejaVuSans-69" d="M 603 3500 
L 1178 3500 
L 1178 0 
L 603 0 
L 603 3500 
z
M 603 4863 
L 1178 4863 
L 1178 4134 
L 603 4134 
L 603 4863 
z
" transform="scale(0.015625)"/>
      </defs>
      <use xlink:href="#DejaVuSans-70"/>
      <use xlink:href="#DejaVuSans-72" x="63.476562"/>
      <use xlink:href="#DejaVuSans-6f" x="102.339844"/>
      <use xlink:href="#DejaVuSans-62" x="163.521484"/>
      <use xlink:href="#DejaVuSans-61" x="226.998047"/>
      <use xlink:href="#DejaVuSans-62" x="288.277344"/>
      <use xlink:href="#DejaVuSans-69" x="351.753906"/>
      <use xlink:href="#DejaVuSans-6c" x="379.537109"/>
      <use xlink:href="#DejaVuSans-69" x="407.320312"/>
      <use xlink:href="#DejaVuSans-74" x="435.103516"/>
      <use xlink:href="#DejaVuSans-79" x="474.3125"/>
     </g>
    </g>
   </g>
   <g id="PolyCollection_1">
    <path d="M -1.659913 347.754762 
L -1.659913 370.778906 
L 1.627311 370.778906 
L 4.914536 370.778906 
L 8.20176 370.778906 
L 11.488984 370.778906 
L 14.776209 370.778906 
L 18.063433 370.778906 
L 21.350657 370.778906 
L 24.637882 370.778906 
L 27.925106 370.778906 
L 31.21233 370.778906 
L 34.499555 370.778906 
L 37.786779 370.778906 
L 41.074003 370.778906 
L 44.361228 370.778906 
L 47.648452 370.778906 
L 50.935676 370.778906 
L 54.2229 370.778906 
L 57.510125 370.778906 
L 60.797349 370.778906 
L 64.084573 370.778906 
L 67.371798 370.778906 
L 70.659022 370.778906 
L 73.946246 370.778906 
L 77.233471 370.778906 
L 80.520695 370.778906 
L 83.807919 370.778906 
L 87.095144 370.778906 
L 90.382368 370.778906 
L 93.669592 370.778906 
L 96.956817 370.778906 
L 100.244041 370.778906 
L 103.531265 370.778906 
L 106.818489 370.778906 
L 110.105714 370.778906 
L 113.392938 370.778906 
L 116.680162 370.778906 
L 119.967387 370.778906 
L 123.254611 370.778906 
L 126.541835 370.778906 
L 129.82906 370.778906 
L 133.116284 370.778906 
L 136.403508 370.778906 
L 139.690733 370.778906 
L 142.977957 370.778906 
L 146.265181 370.778906 
L 149.552406 370.778906 
L 152.83963 370.778906 
L 156.126854 370.778906 
L 159.414078 370.778906 
L 162.701303 370.778906 
L 165.988527 370.778906 
L 169.275751 370.778906 
L 172.562976 370.778906 
L 175.8502 370.778906 
L 179.137424 370.778906 
L 182.424649 370.778906 
L 185.711873 370.778906 
L 188.999097 370.778906 
L 192.286322 370.778906 
L 195.573546 370.778906 
L 198.86077 370.778906 
L 202.147995 370.778906 
L 205.435219 370.778906 
L 208.722443 370.778906 
L 212.009667 370.778906 
L 215.296892 370.778906 
L 218.584116 370.778906 
L 221.87134 370.778906 
L 225.158565 370.778906 
L 228.445789 370.778906 
L 231.733013 370.778906 
L 235.020238 370.778906 
L 238.307462 370.778906 
L 241.594686 370.778906 
L 244.881911 370.778906 
L 248.169135 370.778906 
L 251.456359 370.778906 
L 254.743584 370.778906 
L 258.030808 370.778906 
L 261.318032 370.778906 
L 264.605256 370.778906 
L 267.892481 370.778906 
L 271.179705 370.778906 
L 274.466929 370.778906 
L 277.754154 370.778906 
L 281.041378 370.778906 
L 284.328602 370.778906 
L 287.615827 370.778906 
L 290.903051 370.778906 
L 294.190275 370.778906 
L 297.4775 370.778906 
L 300.764724 370.778906 
L 304.051948 370.778906 
L 307.339173 370.778906 
L 310.626397 370.778906 
L 313.913621 370.778906 
L 317.200845 370.778906 
L 320.48807 370.778906 
L 323.775294 370.778906 
L 327.062518 370.778906 
L 330.349743 370.778906 
L 333.636967 370.778906 
L 336.924191 370.778906 
L 340.211416 370.778906 
L 343.49864 370.778906 
L 346.785864 370.778906 
L 350.073089 370.778906 
L 353.360313 370.778906 
L 356.647537 370.778906 
L 359.934762 370.778906 
L 363.221986 370.778906 
L 366.50921 370.778906 
L 369.796434 370.778906 
L 373.083659 370.778906 
L 376.370883 370.778906 
L 379.658107 370.778906 
L 382.945332 370.778906 
L 386.232556 370.778906 
L 389.51978 370.778906 
L 392.807005 370.778906 
L 396.094229 370.778906 
L 399.381453 370.778906 
L 402.668678 370.778906 
L 405.955902 370.778906 
L 409.243126 370.778906 
L 412.530351 370.778906 
L 415.817575 370.778906 
L 419.104799 370.778906 
L 422.392023 370.778906 
L 425.679248 370.778906 
L 428.966472 370.778906 
L 432.253696 370.778906 
L 435.540921 370.778906 
L 438.828145 370.778906 
L 442.115369 370.778906 
L 445.402594 370.778906 
L 448.689818 370.778906 
L 451.977042 370.778906 
L 455.264267 370.778906 
L 458.551491 370.778906 
L 461.838715 370.778906 
L 465.12594 370.778906 
L 468.413164 370.778906 
L 471.700388 370.778906 
L 474.987612 370.778906 
L 478.274837 370.778906 
L 481.562061 370.778906 
L 484.849285 370.778906 
L 488.13651 370.778906 
L 491.423734 370.778906 
L 494.710958 370.778906 
L 497.998183 370.778906 
L 501.285407 370.778906 
L 504.572631 370.778906 
L 507.859856 370.778906 
L 511.14708 370.778906 
L 514.434304 370.778906 
L 517.721529 370.778906 
L 521.008753 370.778906 
L 524.295977 370.778906 
L 527.583201 370.778906 
L 530.870426 370.778906 
L 534.15765 370.778906 
L 537.444874 370.778906 
L 540.732099 370.778906 
L 544.019323 370.778906 
L 547.306547 370.778906 
L 550.593772 370.778906 
L 553.880996 370.778906 
L 557.16822 370.778906 
L 560.455445 370.778906 
L 563.742669 370.778906 
L 567.029893 370.778906 
L 570.317118 370.778906 
L 573.604342 370.778906 
L 576.891566 370.778906 
L 580.17879 370.778906 
L 583.466015 370.778906 
L 586.753239 370.778906 
L 590.040463 370.778906 
L 593.327688 370.778906 
L 596.614912 370.778906 
L 599.902136 370.778906 
L 603.189361 370.778906 
L 606.476585 370.778906 
L 609.763809 370.778906 
L 613.051034 370.778906 
L 616.338258 370.778906 
L 619.625482 370.778906 
L 622.912707 370.778906 
L 626.199931 370.778906 
L 629.487155 370.778906 
L 632.774379 370.778906 
L 636.061604 370.778906 
L 639.348828 370.778906 
L 642.636052 370.778906 
L 645.923277 370.778906 
L 649.210501 370.778906 
L 652.497725 370.778906 
L 652.497725 338.513747 
L 652.497725 338.513747 
L 649.210501 338.23274 
L 645.923277 337.953006 
L 642.636052 337.670842 
L 639.348828 337.382115 
L 636.061604 337.082238 
L 632.774379 336.766153 
L 629.487155 336.428315 
L 626.199931 336.062671 
L 622.912707 335.662658 
L 619.625482 335.221193 
L 616.338258 334.73068 
L 613.051034 334.183028 
L 609.763809 333.569679 
L 606.476585 332.881666 
L 603.189361 332.109676 
L 599.902136 331.244161 
L 596.614912 330.275461 
L 593.327688 329.193976 
L 590.040463 327.990363 
L 586.753239 326.655777 
L 583.466015 325.182141 
L 580.17879 323.562444 
L 576.891566 321.791061 
L 573.604342 319.864066 
L 570.317118 317.779549 
L 567.029893 315.537882 
L 563.742669 313.141945 
L 560.455445 310.597273 
L 557.16822 307.912114 
L 553.880996 305.09739 
L 550.593772 302.166563 
L 547.306547 299.135397 
L 544.019323 296.021657 
L 540.732099 292.844742 
L 537.444874 289.625305 
L 534.15765 286.384857 
L 530.870426 283.145417 
L 527.583201 279.929186 
L 524.295977 276.758296 
L 521.008753 273.654598 
L 517.721529 270.639506 
L 514.434304 267.733871 
L 511.14708 264.957859 
L 507.859856 262.330817 
L 504.572631 259.871088 
L 501.285407 257.595776 
L 497.998183 255.520421 
L 494.710958 253.6586 
L 491.423734 252.021455 
L 488.13651 250.617172 
L 484.849285 249.450444 
L 481.562061 248.52196 
L 478.274837 247.827981 
L 474.987612 247.360048 
L 471.700388 247.104879 
L 468.413164 247.044486 
L 465.12594 247.156547 
L 461.838715 247.415029 
L 458.551491 247.79105 
L 455.264267 248.253932 
L 451.977042 248.772398 
L 448.689818 249.315829 
L 445.402594 249.855488 
L 442.115369 250.365642 
L 438.828145 250.824484 
L 435.540921 251.214795 
L 432.253696 251.524298 
L 428.966472 251.745694 
L 425.679248 251.876395 
L 422.392023 251.917989 
L 419.104799 251.875531 
L 415.817575 251.756722 
L 412.530351 251.571095 
L 409.243126 251.329275 
L 405.955902 251.042404 
L 402.668678 250.72175 
L 399.381453 250.378551 
L 396.094229 250.024052 
L 392.807005 249.669714 
L 389.51978 249.327549 
L 386.232556 249.010503 
L 382.945332 248.732837 
L 379.658107 248.510452 
L 376.370883 248.361107 
L 373.083659 248.304507 
L 369.796434 248.362247 
L 366.50921 248.557602 
L 363.221986 248.915193 
L 359.934762 249.46051 
L 356.647537 250.219335 
L 353.360313 251.217051 
L 350.073089 252.477842 
L 346.785864 254.023754 
L 343.49864 255.8736 
L 340.211416 258.041669 
L 336.924191 260.536201 
L 333.636967 263.357625 
L 330.349743 266.496588 
L 327.062518 269.931872 
L 323.775294 273.628401 
L 320.48807 277.535635 
L 317.200845 281.586757 
L 313.913621 285.699135 
L 310.626397 289.776489 
L 307.339173 293.713049 
L 304.051948 297.399658 
L 300.764724 300.731345 
L 297.4775 303.615441 
L 294.190275 305.979034 
L 290.903051 307.774498 
L 287.615827 308.982166 
L 284.328602 309.609815 
L 281.041378 309.689243 
L 277.754154 309.27079 
L 274.466929 308.416894 
L 271.179705 307.195763 
L 267.892481 305.675952 
L 264.605256 303.922312 
L 261.318032 301.993428 
L 258.030808 299.940408 
L 254.743584 297.806757 
L 251.456359 295.628995 
L 248.169135 293.437735 
L 244.881911 291.258934 
L 241.594686 289.115149 
L 238.307462 287.026645 
L 235.020238 285.012285 
L 231.733013 283.090167 
L 228.445789 281.278002 
L 225.158565 279.593257 
L 221.87134 278.053102 
L 218.584116 276.674218 
L 215.296892 275.472508 
L 212.009667 274.462793 
L 208.722443 273.658536 
L 205.435219 273.071665 
L 202.147995 272.712564 
L 198.86077 272.590285 
L 195.573546 272.713053 
L 192.286322 273.089082 
L 188.999097 273.727676 
L 185.711873 274.640495 
L 182.424649 275.842672 
L 179.137424 277.353282 
L 175.8502 279.194468 
L 172.562976 281.388479 
L 169.275751 283.952217 
L 165.988527 286.889613 
L 162.701303 290.1834 
L 159.414078 293.788868 
L 156.126854 297.632444 
L 152.83963 301.616722 
L 149.552406 305.631251 
L 146.265181 309.566162 
L 142.977957 313.3248 
L 139.690733 316.83238 
L 136.403508 320.039524 
L 133.116284 322.921292 
L 129.82906 325.473301 
L 126.541835 327.706595 
L 123.254611 329.642535 
L 119.967387 331.308443 
L 116.680162 332.734251 
L 113.392938 333.95014 
L 110.105714 334.98502 
L 106.818489 335.865638 
L 103.531265 336.61615 
L 100.244041 337.257987 
L 96.956817 337.809916 
L 93.669592 338.288209 
L 90.382368 338.706867 
L 87.095144 339.077869 
L 83.807919 339.411413 
L 80.520695 339.716149 
L 77.233471 339.99939 
L 73.946246 340.2673 
L 70.659022 340.525058 
L 67.371798 340.777006 
L 64.084573 341.026767 
L 60.797349 341.277355 
L 57.510125 341.531262 
L 54.2229 341.790534 
L 50.935676 342.056839 
L 47.648452 342.331517 
L 44.361228 342.615626 
L 41.074003 342.909985 
L 37.786779 343.215201 
L 34.499555 343.531701 
L 31.21233 343.859755 
L 27.925106 344.199492 
L 24.637882 344.550922 
L 21.350657 344.91395 
L 18.063433 345.288385 
L 14.776209 345.673957 
L 11.488984 346.070322 
L 8.20176 346.477072 
L 4.914536 346.893743 
L 1.627311 347.319825 
L -1.659913 347.754762 
z
" clip-path="url(#pbb1dad0097)" style="fill: #fc4f30; fill-opacity: 0.9; stroke: #ffffff; stroke-width: 3"/>
   </g>
   <g id="PolyCollection_2">
    <path d="M -1.659913 44.618906 
L -1.659913 347.754762 
L 1.627311 347.319825 
L 4.914536 346.893743 
L 8.20176 346.477072 
L 11.488984 346.070322 
L 14.776209 345.673957 
L 18.063433 345.288385 
L 21.350657 344.91395 
L 24.637882 344.550922 
L 27.925106 344.199492 
L 31.21233 343.859755 
L 34.499555 343.531701 
L 37.786779 343.215201 
L 41.074003 342.909985 
L 44.361228 342.615626 
L 47.648452 342.331517 
L 50.935676 342.056839 
L 54.2229 341.790534 
L 57.510125 341.531262 
L 60.797349 341.277355 
L 64.084573 341.026767 
L 67.371798 340.777006 
L 70.659022 340.525058 
L 73.946246 340.2673 
L 77.233471 339.99939 
L 80.520695 339.716149 
L 83.807919 339.411413 
L 87.095144 339.077869 
L 90.382368 338.706867 
L 93.669592 338.288209 
L 96.956817 337.809916 
L 100.244041 337.257987 
L 103.531265 336.61615 
L 106.818489 335.865638 
L 110.105714 334.98502 
L 113.392938 333.95014 
L 116.680162 332.734251 
L 119.967387 331.308443 
L 123.254611 329.642535 
L 126.541835 327.706595 
L 129.82906 325.473301 
L 133.116284 322.921292 
L 136.403508 320.039524 
L 139.690733 316.83238 
L 142.977957 313.3248 
L 146.265181 309.566162 
L 149.552406 305.631251 
L 152.83963 301.616722 
L 156.126854 297.632444 
L 159.414078 293.788868 
L 162.701303 290.1834 
L 165.988527 286.889613 
L 169.275751 283.952217 
L 172.562976 281.388479 
L 175.8502 279.194468 
L 179.137424 277.353282 
L 182.424649 275.842672 
L 185.711873 274.640495 
L 188.999097 273.727676 
L 192.286322 273.089082 
L 195.573546 272.713053 
L 198.86077 272.590285 
L 202.147995 272.712564 
L 205.435219 273.071665 
L 208.722443 273.658536 
L 212.009667 274.462793 
L 215.296892 275.472508 
L 218.584116 276.674218 
L 221.87134 278.053102 
L 225.158565 279.593257 
L 228.445789 281.278002 
L 231.733013 283.090167 
L 235.020238 285.012285 
L 238.307462 287.026645 
L 241.594686 289.115149 
L 244.881911 291.258934 
L 248.169135 293.437735 
L 251.456359 295.628995 
L 254.743584 297.806757 
L 258.030808 299.940408 
L 261.318032 301.993428 
L 264.605256 303.922312 
L 267.892481 305.675952 
L 271.179705 307.195763 
L 274.466929 308.416894 
L 277.754154 309.27079 
L 281.041378 309.689243 
L 284.328602 309.609815 
L 287.615827 308.982166 
L 290.903051 307.774498 
L 294.190275 305.979034 
L 297.4775 303.615441 
L 300.764724 300.731345 
L 304.051948 297.399658 
L 307.339173 293.713049 
L 310.626397 289.776489 
L 313.913621 285.699135 
L 317.200845 281.586757 
L 320.48807 277.535635 
L 323.775294 273.628401 
L 327.062518 269.931872 
L 330.349743 266.496588 
L 333.636967 263.357625 
L 336.924191 260.536201 
L 340.211416 258.041669 
L 343.49864 255.8736 
L 346.785864 254.023754 
L 350.073089 252.477842 
L 353.360313 251.217051 
L 356.647537 250.219335 
L 359.934762 249.46051 
L 363.221986 248.915193 
L 366.50921 248.557602 
L 369.796434 248.362247 
L 373.083659 248.304507 
L 376.370883 248.361107 
L 379.658107 248.510452 
L 382.945332 248.732837 
L 386.232556 249.010503 
L 389.51978 249.327549 
L 392.807005 249.669714 
L 396.094229 250.024052 
L 399.381453 250.378551 
L 402.668678 250.72175 
L 405.955902 251.042404 
L 409.243126 251.329275 
L 412.530351 251.571095 
L 415.817575 251.756722 
L 419.104799 251.875531 
L 422.392023 251.917989 
L 425.679248 251.876395 
L 428.966472 251.745694 
L 432.253696 251.524298 
L 435.540921 251.214795 
L 438.828145 250.824484 
L 442.115369 250.365642 
L 445.402594 249.855488 
L 448.689818 249.315829 
L 451.977042 248.772398 
L 455.264267 248.253932 
L 458.551491 247.79105 
L 461.838715 247.415029 
L 465.12594 247.156547 
L 468.413164 247.044486 
L 471.700388 247.104879 
L 474.987612 247.360048 
L 478.274837 247.827981 
L 481.562061 248.52196 
L 484.849285 249.450444 
L 488.13651 250.617172 
L 491.423734 252.021455 
L 494.710958 253.6586 
L 497.998183 255.520421 
L 501.285407 257.595776 
L 504.572631 259.871088 
L 507.859856 262.330817 
L 511.14708 264.957859 
L 514.434304 267.733871 
L 517.721529 270.639506 
L 521.008753 273.654598 
L 524.295977 276.758296 
L 527.583201 279.929186 
L 530.870426 283.145417 
L 534.15765 286.384857 
L 537.444874 289.625305 
L 540.732099 292.844742 
L 544.019323 296.021657 
L 547.306547 299.135397 
L 550.593772 302.166563 
L 553.880996 305.09739 
L 557.16822 307.912114 
L 560.455445 310.597273 
L 563.742669 313.141945 
L 567.029893 315.537882 
L 570.317118 317.779549 
L 573.604342 319.864066 
L 576.891566 321.791061 
L 580.17879 323.562444 
L 583.466015 325.182141 
L 586.753239 326.655777 
L 590.040463 327.990363 
L 593.327688 329.193976 
L 596.614912 330.275461 
L 599.902136 331.244161 
L 603.189361 332.109676 
L 606.476585 332.881666 
L 609.763809 333.569679 
L 613.051034 334.183028 
L 616.338258 334.73068 
L 619.625482 335.221193 
L 622.912707 335.662658 
L 626.199931 336.062671 
L 629.487155 336.428315 
L 632.774379 336.766153 
L 636.061604 337.082238 
L 639.348828 337.382115 
L 642.636052 337.670842 
L 645.923277 337.953006 
L 649.210501 338.23274 
L 652.497725 338.513747 
L 652.497725 44.618906 
L 652.497725 44.618906 
L 649.210501 44.618906 
L 645.923277 44.618906 
L 642.636052 44.618906 
L 639.348828 44.618906 
L 636.061604 44.618906 
L 632.774379 44.618906 
L 629.487155 44.618906 
L 626.199931 44.618906 
L 622.912707 44.618906 
L 619.625482 44.618906 
L 616.338258 44.618906 
L 613.051034 44.618906 
L 609.763809 44.618906 
L 606.476585 44.618906 
L 603.189361 44.618906 
L 599.902136 44.618906 
L 596.614912 44.618906 
L 593.327688 44.618906 
L 590.040463 44.618906 
L 586.753239 44.618906 
L 583.466015 44.618906 
L 580.17879 44.618906 
L 576.891566 44.618906 
L 573.604342 44.618906 
L 570.317118 44.618906 
L 567.029893 44.618906 
L 563.742669 44.618906 
L 560.455445 44.618906 
L 557.16822 44.618906 
L 553.880996 44.618906 
L 550.593772 44.618906 
L 547.306547 44.618906 
L 544.019323 44.618906 
L 540.732099 44.618906 
L 537.444874 44.618906 
L 534.15765 44.618906 
L 530.870426 44.618906 
L 527.583201 44.618906 
L 524.295977 44.618906 
L 521.008753 44.618906 
L 517.721529 44.618906 
L 514.434304 44.618906 
L 511.14708 44.618906 
L 507.859856 44.618906 
L 504.572631 44.618906 
L 501.285407 44.618906 
L 497.998183 44.618906 
L 494.710958 44.618906 
L 491.423734 44.618906 
L 488.13651 44.618906 
L 484.849285 44.618906 
L 481.562061 44.618906 
L 478.274837 44.618906 
L 474.987612 44.618906 
L 471.700388 44.618906 
L 468.413164 44.618906 
L 465.12594 44.618906 
L 461.838715 44.618906 
L 458.551491 44.618906 
L 455.264267 44.618906 
L 451.977042 44.618906 
L 448.689818 44.618906 
L 445.402594 44.618906 
L 442.115369 44.618906 
L 438.828145 44.618906 
L 435.540921 44.618906 
L 432.253696 44.618906 
L 428.966472 44.618906 
L 425.679248 44.618906 
L 422.392023 44.618906 
L 419.104799 44.618906 
L 415.817575 44.618906 
L 412.530351 44.618906 
L 409.243126 44.618906 
L 405.955902 44.618906 
L 402.668678 44.618906 
L 399.381453 44.618906 
L 396.094229 44.618906 
L 392.807005 44.618906 
L 389.51978 44.618906 
L 386.232556 44.618906 
L 382.945332 44.618906 
L 379.658107 44.618906 
L 376.370883 44.618906 
L 373.083659 44.618906 
L 369.796434 44.618906 
L 366.50921 44.618906 
L 363.221986 44.618906 
L 359.934762 44.618906 
L 356.647537 44.618906 
L 353.360313 44.618906 
L 350.073089 44.618906 
L 346.785864 44.618906 
L 343.49864 44.618906 
L 340.211416 44.618906 
L 336.924191 44.618906 
L 333.636967 44.618906 
L 330.349743 44.618906 
L 327.062518 44.618906 
L 323.775294 44.618906 
L 320.48807 44.618906 
L 317.200845 44.618906 
L 313.913621 44.618906 
L 310.626397 44.618906 
L 307.339173 44.618906 
L 304.051948 44.618906 
L 300.764724 44.618906 
L 297.4775 44.618906 
L 294.190275 44.618906 
L 290.903051 44.618906 
L 287.615827 44.618906 
L 284.328602 44.618906 
L 281.041378 44.618906 
L 277.754154 44.618906 
L 274.466929 44.618906 
L 271.179705 44.618906 
L 267.892481 44.618906 
L 264.605256 44.618906 
L 261.318032 44.618906 
L 258.030808 44.618906 
L 254.743584 44.618906 
L 251.456359 44.618906 
L 248.169135 44.618906 
L 244.881911 44.618906 
L 241.594686 44.618906 
L 238.307462 44.618906 
L 235.020238 44.618906 
L 231.733013 44.618906 
L 228.445789 44.618906 
L 225.158565 44.618906 
L 221.87134 44.618906 
L 218.584116 44.618906 
L 215.296892 44.618906 
L 212.009667 44.618906 
L 208.722443 44.618906 
L 205.435219 44.618906 
L 202.147995 44.618906 
L 198.86077 44.618906 
L 195.573546 44.618906 
L 192.286322 44.618906 
L 188.999097 44.618906 
L 185.711873 44.618906 
L 182.424649 44.618906 
L 179.137424 44.618906 
L 175.8502 44.618906 
L 172.562976 44.618906 
L 169.275751 44.618906 
L 165.988527 44.618906 
L 162.701303 44.618906 
L 159.414078 44.618906 
L 156.126854 44.618906 
L 152.83963 44.618906 
L 149.552406 44.618906 
L 146.265181 44.618906 
L 142.977957 44.618906 
L 139.690733 44.618906 
L 136.403508 44.618906 
L 133.116284 44.618906 
L 129.82906 44.618906 
L 126.541835 44.618906 
L 123.254611 44.618906 
L 119.967387 44.618906 
L 116.680162 44.618906 
L 113.392938 44.618906 
L 110.105714 44.618906 
L 106.818489 44.618906 
L 103.531265 44.618906 
L 100.244041 44.618906 
L 96.956817 44.618906 
L 93.669592 44.618906 
L 90.382368 44.618906 
L 87.095144 44.618906 
L 83.807919 44.618906 
L 80.520695 44.618906 
L 77.233471 44.618906 
L 73.946246 44.618906 
L 70.659022 44.618906 
L 67.371798 44.618906 
L 64.084573 44.618906 
L 60.797349 44.618906 
L 57.510125 44.618906 
L 54.2229 44.618906 
L 50.935676 44.618906 
L 47.648452 44.618906 
L 44.361228 44.618906 
L 41.074003 44.618906 
L 37.786779 44.618906 
L 34.499555 44.618906 
L 31.21233 44.618906 
L 27.925106 44.618906 
L 24.637882 44.618906 
L 21.350657 44.618906 
L 18.063433 44.618906 
L 14.776209 44.618906 
L 11.488984 44.618906 
L 8.20176 44.618906 
L 4.914536 44.618906 
L 1.627311 44.618906 
L -1.659913 44.618906 
z
" clip-path="url(#pbb1dad0097)" style="fill: #008fd5; fill-opacity: 0.9; stroke: #ffffff; stroke-width: 3"/>
   </g>
   <g id="legend_1">
    <g id="patch_3">
     <path d="M 215.157656 26.337422 
L 248.157656 26.337422 
L 248.157656 14.787422 
L 215.157656 14.787422 
z
" style="fill: #008fd5; fill-opacity: 0.9; stroke: #ffffff; stroke-width: 3; stroke-linejoin: miter"/>
    </g>
    <g id="text_18">
     <!-- retain -->
     <g style="fill: #262626" transform="translate(261.357656 26.337422)scale(0.165 -0.165)">
      <use xlink:href="#DejaVuSans-72"/>
      <use xlink:href="#DejaVuSans-65" x="38.863281"/>
      <use xlink:href="#DejaVuSans-74" x="100.386719"/>
      <use xlink:href="#DejaVuSans-61" x="139.595703"/>
      <use xlink:href="#DejaVuSans-69" x="200.875"/>
      <use xlink:href="#DejaVuSans-6e" x="228.658203"/>
     </g>
    </g>
    <g id="patch_4">
     <path d="M 342.542812 26.337422 
L 375.542812 26.337422 
L 375.542812 14.787422 
L 342.542812 14.787422 
z
" style="fill: #fc4f30; fill-opacity: 0.9; stroke: #ffffff; stroke-width: 3; stroke-linejoin: miter"/>
    </g>
    <g id="text_19">
     <!-- churn -->
     <g style="fill: #262626" transform="translate(388.742812 26.337422)scale(0.165 -0.165)">
      <defs>
       <path id="DejaVuSans-75" d="M 544 1381 
L 544 3500 
L 1119 3500 
L 1119 1403 
Q 1119 906 1312 657 
Q 1506 409 1894 409 
Q 2359 409 2629 706 
Q 2900 1003 2900 1516 
L 2900 3500 
L 3475 3500 
L 3475 0 
L 2900 0 
L 2900 538 
Q 2691 219 2414 64 
Q 2138 -91 1772 -91 
Q 1169 -91 856 284 
Q 544 659 544 1381 
z
M 1991 3584 
L 1991 3584 
z
" transform="scale(0.015625)"/>
      </defs>
      <use xlink:href="#DejaVuSans-63"/>
      <use xlink:href="#DejaVuSans-68" x="54.980469"/>
      <use xlink:href="#DejaVuSans-75" x="118.359375"/>
      <use xlink:href="#DejaVuSans-72" x="181.738281"/>
      <use xlink:href="#DejaVuSans-6e" x="221.101562"/>
     </g>
    </g>
   </g>
  </g>
 </g>
 <defs>
  <clipPath id="pbb1dad0097">
   <rect x="74.858906" y="44.618906" width="501.12" height="326.16"/>
  </clipPath>
 </defs>
</svg>
